<?xml version="1.0" encoding="utf-8"?>
<!-- Generator: Adobe Illustrator 27.5.0, SVG Export Plug-In . SVG Version: 6.00 Build 0)  -->
<svg version="1.1" xmlns="http://www.w3.org/2000/svg" xmlns:xlink="http://www.w3.org/1999/xlink" x="0px" y="0px"
	 viewBox="0 0 750 500" style="enable-background:new 0 0 750 500;" xml:space="preserve">
<g id="Background_Simple">
	<g>
		<path style="fill:#92E3A9;" d="M451.987,49.156c-9.91-2.049-19.819-3.497-29.638-4.171c-44.972-3.087-89.168,8.527-128.513,30.101
			c-39.443,21.628-76.166,48.497-109.957,78.13c-8.4,7.367-16.64,14.932-24.541,22.834C116.007,219.379-1.496,291.35,13.192,351.57
			C27.88,411.79,99.851,460.26,166.68,472.745c66.83,12.485,121.175-33.048,212.24-33.048c91.065,0,167.442,35.251,232.803,24.235
			c65.361-11.016,109.425-65.361,111.628-147.614c1.185-44.231-8.188-89.727-31.397-127.778
			c-23.446-38.439-61.922-64.653-101.169-85.004c-41.405-21.471-86.491-42.265-132.024-52.888
			C456.51,50.123,454.252,49.624,451.987,49.156z"/>
		<path style="opacity:0.7;fill:#FFFFFF;" d="M451.987,49.156c-9.91-2.049-19.819-3.497-29.638-4.171
			c-44.972-3.087-89.168,8.527-128.513,30.101c-39.443,21.628-76.166,48.497-109.957,78.13c-8.4,7.367-16.64,14.932-24.541,22.834
			C116.007,219.379-1.496,291.35,13.192,351.57C27.88,411.79,99.851,460.26,166.68,472.745
			c66.83,12.485,121.175-33.048,212.24-33.048c91.065,0,167.442,35.251,232.803,24.235
			c65.361-11.016,109.425-65.361,111.628-147.614c1.185-44.231-8.188-89.727-31.397-127.778
			c-23.446-38.439-61.922-64.653-101.169-85.004c-41.405-21.471-86.491-42.265-132.024-52.888
			C456.51,50.123,454.252,49.624,451.987,49.156z"/>
	</g>
</g>
<g id="Floor">
	<line style="fill:#263238;stroke:#000000;stroke-miterlimit:10;" x1="728.267" y1="413.154" x2="37.848" y2="413.154"/>
</g>
<g id="Plant">
	<g>
		<g>
			<path style="fill:#ABABAB;" d="M101.69,244.285l0.003-0.008c0.025-0.065-0.005-0.138-0.069-0.166
				c-0.066-0.028-0.142,0.002-0.17,0.067c-3.917,9.046-6.671,18.541-8.97,28.119c-2.219,9.604-3.826,19.348-4.949,29.151
				l-0.701,7.368c-0.108,1.229-0.242,2.457-0.33,3.687l-0.201,3.696c-0.106,2.465-0.257,4.931-0.328,7.399l0.067,7.405l0.082,3.701
				c0.055,1.232,0.143,2.464,0.227,3.695c0.187,2.461,0.337,4.923,0.562,7.378c0.472,4.908,1.21,9.792,1.969,14.653
				c0.01,0.062,0.064,0.11,0.129,0.11c0.071,0,0.129-0.059,0.129-0.13v-0.007c-0.013-2.468-0.117-4.923-0.173-7.379
				c-0.071-2.454-0.285-4.897-0.25-7.352c0.011-2.454-0.053-4.902-0.08-7.35l-0.068-3.67l0.065-3.671l0.033-7.337l0.199-7.333
				l0.076-3.67c0.047-1.222,0.138-2.442,0.206-3.663l0.45-7.329c0.858-9.753,2.198-19.47,4.152-29.075
				C95.698,262.98,98.11,253.422,101.69,244.285z"/>
			<path style="fill:#ABABAB;" d="M102.741,282.652c0.019-0.066-0.016-0.139-0.081-0.162c-0.068-0.023-0.142,0.012-0.165,0.08
				c-2.112,6.096-3.797,12.332-5.223,18.634c-1.362,6.313-2.431,12.708-3.083,19.152c-0.652,6.421-1.37,12.848-1.458,19.305
				c-0.099,6.453,0.004,12.913,0.686,19.36c0.007,0.059,0.054,0.11,0.116,0.116c0.072,0.008,0.136-0.044,0.143-0.116
				c0.746-6.428,1.201-12.84,1.646-19.249c0.455-6.407,0.516-12.832,0.934-19.242c0.387-6.39,1.189-12.753,2.289-19.076
				C99.622,295.13,100.966,288.831,102.741,282.652z"/>
			<path style="fill:#ABABAB;" d="M124.011,296.149c-0.039-0.06-0.118-0.079-0.179-0.04c-5.324,3.371-10.073,7.616-14.222,12.4
				c-2.04,2.428-3.936,4.969-5.561,7.733l-1.143,2.157l-0.894,2.24c-0.322,0.743-0.548,1.508-0.781,2.272
				c-0.23,0.764-0.487,1.525-0.693,2.295c-1.597,6.165-2.656,12.447-2.942,18.761c-0.257,6.311-0.137,12.631,0.706,18.897
				c0.009,0.059,0.058,0.108,0.12,0.112c0.072,0.005,0.134-0.049,0.139-0.12l1.621-18.706c0.646-6.184,1.042-12.405,2.37-18.444
				c0.169-0.752,0.385-1.488,0.576-2.234c0.193-0.745,0.38-1.493,0.656-2.203l0.759-2.162l0.977-2.042
				c1.44-2.702,3.202-5.287,5.096-7.737c3.798-4.902,8.267-9.37,13.354-12.998l0.007-0.005
				C124.033,296.284,124.048,296.207,124.011,296.149z"/>
			<path style="fill:#ABABAB;" d="M113.717,320.181c-2.899,1.871-4.837,4.814-6.468,7.775c-1.554,3.027-2.778,6.234-3.624,9.525
				c-0.255,0.815-0.456,1.641-0.632,2.471l-0.587,2.487c-0.299,1.67-0.533,3.358-0.628,5.051c-0.022,1.697-0.071,3.392,0.044,5.084
				c0.141,1.691,0.333,3.379,0.667,5.052c0.012,0.048,0.052,0.093,0.104,0.104c0.072,0.014,0.142-0.032,0.156-0.104
				c0.41-1.669,0.678-3.323,0.896-4.973c0.263-1.647,0.519-3.283,0.716-4.921c0.24-1.631,0.456-3.257,0.583-4.901
				c0.228-1.621,0.348-3.279,0.703-4.881c0.569-3.243,1.507-6.408,2.774-9.436c1.262-3.002,2.904-5.995,5.43-8.11l0.02-0.017
				c0.049-0.041,0.061-0.113,0.026-0.168C113.856,320.16,113.776,320.143,113.717,320.181z"/>
			<path style="fill:#ABABAB;" d="M83.886,338.918c-0.7-8.304-2.069-16.525-3.363-24.742c-1.299-8.218-2.73-16.411-4.234-24.589
				c-1.557-8.169-3.184-16.322-4.945-24.446c-0.015-0.067-0.081-0.113-0.15-0.1c-0.07,0.013-0.117,0.08-0.104,0.151
				c1.421,8.186,2.707,16.395,3.921,24.611c1.246,8.211,2.419,16.432,3.459,24.666c1.015,8.239,1.806,16.497,2.838,24.721
				l3.038,24.72c0.007,0.062,0.059,0.112,0.123,0.115c0.072,0.003,0.132-0.052,0.136-0.124c0.095-2.083,0.098-4.166,0.149-6.254
				c0.019-2.087-0.085-4.165-0.122-6.251C84.555,347.224,84.199,343.073,83.886,338.918z"/>
			<path style="fill:#ABABAB;" d="M78.907,338.799c-0.444-3.289-1.049-6.559-1.676-9.818l-1.166-4.848
				c-0.382-1.616-0.744-3.236-1.217-4.832c-1.657-6.433-3.774-12.756-6.347-18.884l-0.996-2.285l-1.107-2.236
				c-0.704-1.505-1.555-2.94-2.362-4.39c-1.736-2.828-3.538-5.654-5.994-7.947c-0.05-0.046-0.128-0.046-0.178,0.002
				c-0.051,0.05-0.053,0.131-0.003,0.183l0.013,0.013c2.27,2.353,3.924,5.257,5.483,8.127c0.722,1.477,1.485,2.928,2.103,4.453
				l0.975,2.26l0.865,2.307c2.301,6.147,4.146,12.466,5.533,18.89c0.757,3.195,1.258,6.451,1.877,9.672l0.777,4.867
				c0.281,1.618,0.628,3.225,0.855,4.854c0.518,3.246,1.115,6.484,1.682,9.733c0.503,3.257,1.098,6.509,1.785,9.763
				c0.012,0.059,0.065,0.107,0.128,0.107c0.072,0,0.13-0.058,0.131-0.129c0.014-3.317-0.063-6.637-0.232-9.952
				C79.644,345.397,79.252,342.101,78.907,338.799z"/>
			<path style="fill:#ABABAB;" d="M72.035,339.222c-1.539-4.357-3.319-8.622-5.259-12.804c-1.991-4.159-4.14-8.239-6.614-12.125
				c-0.038-0.055-0.116-0.077-0.175-0.042c-0.062,0.037-0.082,0.116-0.046,0.178c2.161,4.036,3.988,8.246,5.645,12.504
				c1.686,4.247,3.205,8.556,4.478,12.935c1.299,4.374,2.229,8.832,3.393,13.225c1.223,4.39,2.213,8.825,3.563,13.271
				c0.016,0.053,0.066,0.095,0.125,0.096c0.072,0.001,0.131-0.057,0.132-0.129c0.065-4.638-0.39-9.274-1.292-13.815
				C75.171,347.948,73.565,343.576,72.035,339.222z"/>
			<path style="fill:#ABABAB;" d="M71.75,353.736c-0.787-2.728-2.13-5.27-3.656-7.665c-1.498-2.407-3.237-4.683-5.321-6.611
				c-1.073-0.93-2.171-1.825-3.384-2.552c-1.195-0.747-2.463-1.378-3.839-1.735c-0.06-0.016-0.124,0.014-0.15,0.072
				c-0.029,0.065,0,0.141,0.066,0.171l0.016,0.007c2.488,1.106,4.59,2.94,6.368,4.947c1.801,2.01,3.238,4.316,4.436,6.717
				c1.26,2.385,1.911,5.022,3.007,7.479c0.483,1.26,0.964,2.528,1.523,3.786c0.474,1.284,1,2.564,1.669,3.837l0.004,0.007
				c0.021,0.04,0.063,0.069,0.112,0.071c0.074,0.003,0.136-0.054,0.139-0.128c0.059-1.421-0.024-2.834-0.158-4.244
				C72.378,356.497,72.083,355.113,71.75,353.736z"/>
		</g>
		<path style="fill:#92E3A9;" d="M72.264,277.029c0,0-13.607-3.14-16.747-17.794c-3.14-14.654,6.978-8.374-2.093-31.401
			c-9.072-23.028-6.978-28.261-3.838-34.89c3.14-6.629,4.885-4.536,7.676,4.187c2.791,8.722,12.909,22.33,16.747,47.8
			C77.846,270.4,72.264,277.029,72.264,277.029z"/>
		<path style="fill:#92E3A9;" d="M99.129,252.257c0,0-9.072-3.14-9.421-20.236c-0.349-17.096,6.629-13.607,7.676-34.89
			c1.047-21.283,2.442-36.286,6.28-36.635c3.838-0.349,13.956,10.467,17.445,34.192c3.489,23.725-4.536,39.426-11.514,46.404
			C102.618,248.07,99.129,252.257,99.129,252.257z"/>
		<path style="fill:#92E3A9;" d="M67.379,297.614c0,0-2.093-12.56-6.28-18.492c-4.187-5.931-13.258-11.165-19.19-22.679
			c-5.931-11.514-12.56-17.096-12.212-0.698c0.349,16.398,7.676,24.772,16.747,30.354C55.516,291.683,67.379,297.614,67.379,297.614
			z"/>
		<path style="fill:#92E3A9;" d="M63.541,319.246c0,0-8.374-16.049-20.585-27.912c-12.212-11.863-21.981-17.794-18.492-11.863
			c3.489,5.931,7.676,5.583,13.607,16.049c5.931,10.467,4.187,18.143,12.561,24.074C59.005,325.527,63.541,319.246,63.541,319.246z"
			/>
		<path style="fill:#92E3A9;" d="M62.494,339.832c-0.349-1.047-0.698-8.722-12.56-15.003c-11.863-6.28-23.028-3.838-21.632-0.698
			c1.396,3.14,8.722,8.374,16.049,11.514C51.678,338.785,62.494,339.832,62.494,339.832z"/>
		<path style="fill:#92E3A9;" d="M98.432,298.312c0,0-5.234-6.629-2.443-20.585c2.791-13.956,9.071-10.467,16.05-17.794
			c6.978-7.327,5.582-8.374,12.56-16.049c6.978-7.676,13.258-11.863,16.049-8.723c2.791,3.14-1.395,12.91-5.582,18.492
			c-4.187,5.583-10.816,8.374-13.956,15.352c-3.14,6.978-1.744,18.143-9.769,23.377C103.316,297.614,98.432,298.312,98.432,298.312z
			"/>
		<path style="fill:#92E3A9;" d="M115.876,302.15c0,0,12.561-14.305,21.632-24.772c9.071-10.467,12.56-18.492,12.909-11.514
			c0.349,6.978,3.14,12.561-4.187,21.632C138.904,296.568,115.876,302.15,115.876,302.15z"/>
		<path style="fill:#92E3A9;" d="M109.247,325.178c0,0-0.349-5.583,19.539-18.492c19.887-12.909,28.261-15.352,26.168-10.118
			c-2.093,5.233-10.816,10.467-20.236,19.887C125.297,325.875,109.247,325.178,109.247,325.178z"/>
		<path style="fill:none;stroke:#ABABAB;stroke-linecap:round;stroke-linejoin:round;stroke-miterlimit:10;" d="M73.094,275.542
			c0,0-4.668-25.03-9.552-42.824c-4.885-17.794-8.025-28.61-8.025-28.61"/>
		<path style="fill:none;stroke:#ABABAB;stroke-linecap:round;stroke-linejoin:round;stroke-miterlimit:10;" d="M98.326,252.52
			c0,0,8.479-27.129,11.271-43.527c2.791-16.398-0.349-28.61-1.745-35.937"/>
		<path style="fill:none;stroke:#ABABAB;stroke-linecap:round;stroke-linejoin:round;stroke-miterlimit:10;" d="M66.279,297.091
			c0,0-5.18-9.245-12.856-18.317c-7.676-9.072-13.607-13.956-17.096-22.678"/>
		<path style="fill:none;stroke:#ABABAB;stroke-linecap:round;stroke-linejoin:round;stroke-miterlimit:10;" d="M98.432,298.312
			c0,0,2.791-16.747,9.42-25.47c6.629-8.722,19.887-22.329,25.121-31.052"/>
		<path style="fill:none;stroke:#ABABAB;stroke-linecap:round;stroke-linejoin:round;stroke-miterlimit:10;" d="M61.675,339.451
			c0,0-11.741-7.644-20.114-11.831"/>
		<path style="fill:#ABABAB;" d="M95.819,413.45h-15.36c-2.719,0-5.175-1.629-6.222-4.138c-5.017-12.024-18.417-46.73-10.347-56.571
			c7.688-9.375,40.81-9.375,48.498,0c8.07,9.841-5.33,44.547-10.348,56.571C100.993,411.821,98.537,413.45,95.819,413.45z"/>
	</g>
</g>
<g id="Picture">
	<g style="opacity:0.3;">
		<rect x="550.813" y="78.395" style="fill:none;stroke:#000000;stroke-miterlimit:10;" width="86.931" height="107.766"/>
		<rect x="572.276" y="105.003" style="stroke:#000000;stroke-miterlimit:10;" width="44.003" height="54.55"/>
	</g>
</g>
<g id="Furniture">
	<g style="opacity:0.3;">
		<g>
			
				<rect x="409.251" y="267.497" transform="matrix(-1 -1.224647e-16 1.224647e-16 -1 956.3066 540.189)" style="fill:none;stroke:#000000;stroke-linecap:round;stroke-linejoin:round;stroke-miterlimit:10;" width="137.804" height="5.194"/>
			
				<rect x="415.643" y="272.841" transform="matrix(-1 -1.224647e-16 1.224647e-16 -1 956.3066 685.9946)" style="fill:none;stroke:#000000;stroke-linecap:round;stroke-linejoin:round;stroke-miterlimit:10;" width="125.02" height="140.314"/>
			<g>
				
					<rect x="420.14" y="279.368" transform="matrix(-1 -1.224647e-16 1.224647e-16 -1 956.4518 589.1817)" style="fill:none;stroke:#000000;stroke-linecap:round;stroke-linejoin:round;stroke-miterlimit:10;" width="116.172" height="30.445"/>
				
					<rect x="472.618" y="291.787" transform="matrix(-1 -1.224647e-16 1.224647e-16 -1 956.8522 589.1816)" style="fill:#263238;stroke:#000000;stroke-linecap:round;stroke-linejoin:round;stroke-miterlimit:10;" width="11.617" height="5.608"/>
			</g>
			<g>
				
					<rect x="420.14" y="317.825" transform="matrix(-1 -1.224647e-16 1.224647e-16 -1 956.4518 666.0953)" style="fill:none;stroke:#000000;stroke-linecap:round;stroke-linejoin:round;stroke-miterlimit:10;" width="116.172" height="30.445"/>
				
					<rect x="472.618" y="330.243" transform="matrix(-1 -1.224647e-16 1.224647e-16 -1 956.8522 666.0953)" style="fill:#263238;stroke:#000000;stroke-linecap:round;stroke-linejoin:round;stroke-miterlimit:10;" width="11.617" height="5.608"/>
			</g>
			<g>
				
					<rect x="420.14" y="356.46" transform="matrix(-1 -1.224647e-16 1.224647e-16 -1 956.4518 743.3648)" style="fill:none;stroke:#000000;stroke-linecap:round;stroke-linejoin:round;stroke-miterlimit:10;" width="116.172" height="30.445"/>
				
					<rect x="472.618" y="368.878" transform="matrix(-1 -1.224647e-16 1.224647e-16 -1 956.8522 743.3647)" style="fill:#263238;stroke:#000000;stroke-linecap:round;stroke-linejoin:round;stroke-miterlimit:10;" width="11.617" height="5.608"/>
			</g>
		</g>
	</g>
</g>
<g id="Lamp">
	<g style="opacity:0.3;">
		<path style="stroke:#000000;stroke-miterlimit:10;" d="M481.635,221.158v-1.416h-10.019v1.416c0,7.148-3.044,13.868-8.11,18.911
			c-2.88,2.867-4.638,6.681-4.638,10.869c0,8.91,7.95,16.134,17.757,16.134s17.757-7.223,17.757-16.134
			c0-4.188-1.757-8.002-4.638-10.869C484.679,235.026,481.635,228.306,481.635,221.158z"/>
		<rect x="439.781" y="151.927" style="fill:none;stroke:#000000;stroke-miterlimit:10;" width="74.433" height="67.788"/>
	</g>
</g>
<g id="Carpet">
	<polygon style="fill:#ABABAB;" points="222.31,472.21 724.461,472.21 682.615,419.764 264.156,419.764 	"/>
</g>
<g id="Device">
	<g>
		<g>
			<path style="fill:#FFFFFF;stroke:#263238;stroke-linecap:round;stroke-linejoin:round;stroke-miterlimit:10;" d="M307.727,89.924
				v311.494c0,8.55-6.931,15.48-15.481,15.48H157.653c-8.55,0-15.481-6.931-15.481-15.481V89.916
				c0-8.545,6.927-15.473,15.473-15.473h57.771l0.048,0.177c1.44,5.181,4.755,8.552,8.431,8.552h2.108
				c3.677,0,6.991-3.371,8.431-8.552l0.056-0.177h57.755C300.796,74.443,307.727,81.374,307.727,89.924z"/>
		</g>
		<g>
			<path style="fill:#92E3A9;stroke:#263238;stroke-linecap:round;stroke-linejoin:round;stroke-miterlimit:10;" d="
				M318.254,164.322V133.21h-2.814V93.38c0-13.56-10.992-24.552-24.552-24.552H159.011c-13.559,0-24.551,10.992-24.551,24.552
				v316.503c0,13.56,10.992,24.552,24.551,24.552h131.878c13.559,0,24.552-10.992,24.552-24.552V190.837h2.814v-18.384h-2.814
				v-8.131H318.254z M307.727,392.344c0,13.564-10.998,24.554-24.554,24.554H166.726c-13.556,0-24.554-10.99-24.554-24.554V98.989
				c0-13.556,10.998-24.546,24.554-24.546h48.69l0.048,0.177c1.44,5.181,4.755,8.552,8.431,8.552h2.108
				c3.677,0,6.991-3.371,8.431-8.552l0.056-0.177h48.682c13.556,0,24.554,10.99,24.554,24.546V392.344z"/>
			<path style="fill:#263238;stroke:#263238;stroke-linecap:round;stroke-linejoin:round;stroke-miterlimit:10;" d="M288.919,72.21
				H160.98c-13.077,0-23.678,10.601-23.678,23.679v311.485c0,13.077,10.601,23.678,23.678,23.678h127.939
				c13.077,0,23.678-10.601,23.678-23.678V95.889C312.598,82.811,301.996,72.21,288.919,72.21z M307.727,393.217
				c0,13.079-10.602,23.681-23.681,23.681H165.853c-13.079,0-23.681-10.602-23.681-23.681V98.116
				c0-13.074,10.599-23.673,23.673-23.673h49.571l0.048,0.177c1.44,5.181,4.755,8.552,8.431,8.552h2.108
				c3.677,0,6.991-3.371,8.431-8.552l0.056-0.177h49.555c13.079,0,23.681,10.602,23.681,23.681V393.217z"/>
			<path style="fill:#FFFFFF;" d="M226.749,75.617c0-1.273-1.032-2.305-2.305-2.305c-1.273,0-2.305,1.032-2.305,2.305
				c0,1.273,1.032,2.305,2.305,2.305C225.717,77.922,226.749,76.89,226.749,75.617z"/>
			<g>
				<g>
					<path style="fill:#263238;" d="M156.887,84.449c0,2.332-2.619,3.172-2.63,4.951v0.121h2.542v0.785h-3.392v-0.663
						c0-2.497,2.619-2.984,2.619-5.161c0-0.795-0.266-1.215-0.906-1.215c-0.63,0-0.906,0.453-0.906,1.138v0.685h-0.806v-0.63
						c0-1.183,0.541-1.967,1.734-1.967C156.346,82.493,156.887,83.267,156.887,84.449z"/>
					<path style="fill:#263238;" d="M161.121,84.438v0.199c0,0.796-0.32,1.36-0.939,1.592c0.651,0.243,0.939,0.829,0.939,1.602
						v0.597c0,1.182-0.552,1.956-1.746,1.956c-1.182,0-1.734-0.774-1.734-1.956v-0.531h0.806v0.586c0,0.696,0.287,1.116,0.906,1.116
						c0.63,0,0.906-0.409,0.906-1.193v-0.597c0-0.763-0.321-1.127-0.973-1.149h-0.464v-0.774h0.508
						c0.575-0.022,0.929-0.387,0.929-1.061v-0.354c0-0.796-0.277-1.204-0.906-1.204c-0.619,0-0.906,0.431-0.906,1.127v0.398h-0.806
						v-0.354c0-1.183,0.552-1.945,1.734-1.945C160.569,82.493,161.121,83.256,161.121,84.438z"/>
					<path style="fill:#263238;" d="M162.791,85.024v1.072h-0.829v-1.072H162.791z M162.791,89.234v1.072h-0.829v-1.072H162.791z"/>
					<path style="fill:#263238;" d="M164.538,85.721c0.243-0.42,0.63-0.641,1.15-0.641c0.995,0,1.436,0.729,1.436,1.834v1.514
						c0,1.182-0.563,1.956-1.745,1.956c-1.183,0-1.735-0.774-1.735-1.956v-0.519h0.806v0.574c0,0.696,0.287,1.116,0.906,1.116
						c0.619,0,0.906-0.42,0.906-1.116V86.98c0-0.696-0.287-1.116-0.906-1.116c-0.475,0-0.796,0.265-0.873,0.829v0.177h-0.806
						l0.21-4.299h3.05v0.774h-2.277L164.538,85.721z"/>
					<path style="fill:#263238;" d="M171.424,84.427v0.144h-0.806v-0.199c0-0.696-0.287-1.105-0.917-1.105
						c-0.652,0-0.94,0.42-0.94,1.249v1.735c0.21-0.53,0.63-0.829,1.249-0.829c0.995,0,1.437,0.719,1.437,1.835v1.172
						c0,1.182-0.587,1.956-1.769,1.956c-1.194,0-1.779-0.774-1.779-1.956v-3.946c0-1.227,0.553-1.989,1.779-1.989
						C170.871,82.493,171.424,83.245,171.424,84.427z M168.76,87.323v1.16c0,0.696,0.287,1.116,0.917,1.116
						c0.619,0,0.917-0.42,0.917-1.116v-1.16c0-0.696-0.298-1.116-0.917-1.116C169.048,86.207,168.76,86.626,168.76,87.323z"/>
				</g>
				<g>
					<rect x="253.693" y="84.768" style="fill:#263238;" width="2.184" height="5.461"/>
					<rect x="256.605" y="83.674" style="fill:#263238;" width="2.184" height="6.555"/>
					<rect x="259.517" y="82.897" style="fill:#263238;" width="2.184" height="7.331"/>
					<rect x="262.43" y="81.546" style="fill:#263238;" width="2.184" height="8.682"/>
					<g>
						<g>
							<path style="fill:#263238;" d="M291.644,90.078h-13.106v-8.009h13.106V90.078z M279.267,89.35h11.65v-6.553h-11.65V89.35z"/>
						</g>
						<g>
							<rect x="280.359" y="83.59" style="fill:#263238;" width="6.917" height="4.968"/>
						</g>
						<g>
							<rect x="291.189" y="85.13" style="fill:#263238;" width="1.648" height="1.887"/>
						</g>
					</g>
					<g>
						<path style="fill:#263238;" d="M273.733,88.336c-0.085,0-0.172-0.022-0.251-0.069c-2.667-1.585-4.43-0.114-4.503-0.052
							c-0.204,0.177-0.512,0.154-0.689-0.049c-0.177-0.204-0.158-0.51,0.045-0.687c0.095-0.083,2.349-2.014,5.649-0.053
							c0.232,0.138,0.309,0.439,0.17,0.671C274.062,88.251,273.9,88.336,273.733,88.336z"/>
					</g>
					<g>
						<path style="fill:#263238;" d="M274.72,86.691c-0.085,0-0.172-0.022-0.251-0.069c-3.856-2.293-6.448-0.075-6.475-0.054
							c-0.203,0.18-0.511,0.159-0.69-0.044c-0.179-0.203-0.16-0.512,0.044-0.69c0.032-0.029,3.158-2.706,7.622-0.054
							c0.232,0.138,0.309,0.439,0.17,0.671C275.049,86.606,274.886,86.691,274.72,86.691z"/>
					</g>
					<g>
						<path style="fill:#263238;" d="M275.616,84.785c-0.085,0-0.172-0.022-0.251-0.069c-4.884-2.904-8.131-0.17-8.267-0.051
							c-0.204,0.177-0.513,0.155-0.69-0.048c-0.178-0.203-0.158-0.511,0.045-0.688c0.038-0.035,3.896-3.334,9.413-0.054
							c0.232,0.138,0.309,0.439,0.17,0.671C275.944,84.7,275.782,84.785,275.616,84.785z"/>
					</g>
					<g>
						<path style="fill:#263238;" d="M272.26,89.156c0,0.678-0.55,1.228-1.228,1.228c-0.678,0-1.228-0.55-1.228-1.228
							s0.55-1.228,1.228-1.228C271.71,87.928,272.26,88.478,272.26,89.156z"/>
					</g>
				</g>
			</g>
		</g>
	</g>
</g>
<g id="Screen">
	<g>
		<g>
			<g>
				<path style="fill:#E8E8E8;" d="M224.655,276.639c-37.695,0-68.363-30.668-68.363-68.363c0-37.696,30.668-68.363,68.363-68.363
					c37.695,0,68.363,30.668,68.363,68.363C293.018,245.971,262.351,276.639,224.655,276.639z M224.655,153.257
					c-30.337,0-55.019,24.682-55.019,55.019s24.681,55.018,55.019,55.018s55.018-24.681,55.018-55.018
					S254.993,153.257,224.655,153.257z"/>
			</g>
			<path style="fill:#92E3A9;" d="M227.296,147.156L227.296,147.156c-0.023,3.378,2.395,6.334,5.734,6.848
				c27.055,4.169,47.551,28.217,46.092,56.759c-1.429,27.962-24.316,50.548-52.293,51.635
				c-31.112,1.209-56.714-23.655-56.714-54.498c0-11.076,3.305-21.378,8.979-29.98c1.943-2.946,1.322-6.886-1.411-9.119l0,0
				c-3.182-2.601-7.909-1.862-10.169,1.57c-7.63,11.591-11.831,25.64-11.148,40.706c1.587,35.028,29.951,63.452,64.975,65.105
				c39.261,1.853,71.673-29.429,71.673-68.282c0-34.147-25.04-62.433-57.758-67.527
				C231.093,139.725,227.325,142.942,227.296,147.156z"/>
		</g>
		<path style="fill:#263238;" d="M282.303,194.22c-0.758-0.909-2.12-1.368-3.322-1.774c-0.517-0.174-1.005-0.339-1.352-0.513
			c-0.306-0.153-0.707-0.519-1.13-0.905c-1.035-0.945-2.315-2.1-3.917-1.899c-0.06,0.007-0.117,0.003-0.178,0.014
			c-0.006,0.001-0.011,0.004-0.017,0.005c-0.164,0.032-0.319,0.081-0.468,0.14c-0.049,0.019-0.096,0.045-0.145,0.067
			c-0.11,0.051-0.217,0.108-0.319,0.172c-0.049,0.031-0.098,0.062-0.146,0.096c-0.121,0.087-0.237,0.18-0.346,0.282
			c-0.022,0.021-0.046,0.037-0.068,0.059c-0.133,0.13-0.254,0.271-0.369,0.417c-0.017,0.022-0.036,0.038-0.053,0.06l-0.692,0.906
			l0.132-0.009c-0.337,0.652-0.539,1.283-0.642,1.657c-3.17,0.177-10.107,0.606-13.251,0.878c-0.091,0.008-0.191,0.016-0.276,0.023
			c-3.021,0.272-5.787,1.726-7.806,2.788c-0.35,0.184-0.676,0.355-0.974,0.505c-0.299,0.15-0.57,0.278-0.807,0.374
			c-0.375,0.152-0.889,0.231-1.497,0.268c-0.921,0.056-2.063,0.012-3.313-0.035c-0.384-0.015-0.784-0.03-1.188-0.043
			c-0.243-0.008-0.493-0.012-0.743-0.018c-1.23-0.029-2.524-0.029-3.85,0.076c-0.542,0.043-1.07,0.054-1.586,0.041
			c-1.217-0.031-2.365-0.198-3.484-0.387c-0.306-0.052-0.613-0.103-0.915-0.156c-1.919-0.339-3.732-0.658-5.428-0.303
			c-1.554,0.327-3.267,0.947-4.779,1.495l-1.094,0.392c-0.144,0.051-0.293,0.102-0.441,0.153c-0.161,0.055-0.321,0.11-0.475,0.16
			c-0.131,0.043-0.261,0.084-0.39,0.123c-0.197,0.061-0.382,0.111-0.563,0.158c-0.102,0.027-0.207,0.058-0.304,0.08
			c-0.265,0.061-0.51,0.106-0.723,0.124l-0.032,0.003c-1.628,0.117-3.353-0.638-4.744-1.25l-0.104-0.046l0-0.001l-0.332-0.144
			c-2.202-0.954-9.627-4.073-12.84-3.96c-0.371,0.012-0.717,0.031-1.046,0.054c-0.055,0.004-0.107,0.01-0.161,0.014
			c-0.289,0.022-0.562,0.048-0.817,0.077c-0.025,0.003-0.052,0.004-0.077,0.007l-0.022,0.005c-0.848,0.101-1.501,0.227-1.965,0.339
			c0.082-0.666-0.092-1.434-0.525-2.3c-0.051-0.101-0.075-0.302-0.102-0.535c-0.086-0.726-0.216-1.822-1.387-3.228
			c-1.668-2.001-2.923-2.9-5.899-2.83c-3.089,0.056-4.486,2.181-4.544,2.271l-0.02,0.035c-0.003,0.007-0.368,0.673-1.021,1.152
			c-0.199,0.146-0.476,0.234-0.743,0.318c-0.578,0.183-1.452,0.461-1.347,1.569c0.048,0.505,0.48,1.152,1.11,1.788
			c-0.133,0.646-0.198,1.404,0.056,1.944c0.106,0.225,0.23,0.444,0.353,0.657c0.338,0.588,0.536,0.965,0.371,1.275
			c-0.122,0.229-0.271,0.426-0.398,0.597c-0.255,0.343-0.495,0.667-0.412,1.055c0.033,0.15,0.128,0.361,0.403,0.514
			c0.343,0.19,0.715,0.381,0.887,0.469c0.362,0.444,1.155,1.444,1.412,1.885c0.396,0.68,0.876,1.268,2.363,1.01
			c0.938-0.163,1.618-0.688,1.955-1.003c0.897,0.231,3.398,0.862,4.08,0.908c0.265,0.018,0.726,0.094,1.203,0.184
			c-0.059,1.469,0.152,2.819,0.488,3.863c0.45,1.399,0.685,6.945,0.812,9.925c0.066,1.557,0.086,1.966,0.117,2.129
			c-0.008,0.069-0.029,0.169-0.053,0.297c-0.138,0.723-0.426,2.229-0.011,4.109c0.455,2.061,0.909,7.32,1.022,8.685
			c-0.055,0.03-0.127,0.066-0.195,0.102c-0.312,0.038-0.771,0.031-1.064,0.024c-0.629-0.016-1.172-0.026-1.533,0.154
			c-0.496,0.249-1.011,0.746-1.281,1.028c-0.715,0.188-1.381,0.371-1.774,0.505c-0.631,0.214-0.699,0.552-0.646,0.797
			c0.044,0.205,0.127,0.589,1.546,0.589c0.335,0,0.745-0.021,1.245-0.072c1.118-0.112,2.457-0.172,3.872-0.173
			c0.113,0,0.23,0.005,0.349,0.011c0.626,0.027,1.459,0.056,2.136-0.599c0.543,0.002,1.67-0.1,1.922-0.982
			c0.159-0.558,0.436-3.098,0.823-7.548c0.373-4.287,0.684-7.159,0.899-8.308c0.197-1.05,0.113-4.303,0.022-6.619
			c0.758,0.484,1.5,0.817,2.109,0.858c1.072,0.072,2.216-0.113,2.873-0.248c0.154-0.031,0.289-0.061,0.381-0.083
			c0.178,0.065,0.503,0.168,0.989,0.282c0.026,0.006,0.056,0.012,0.083,0.019c0.098,0.022,0.19,0.044,0.301,0.067l0.183,0.038
			l0.003-0.001c0.833,0.163,2,0.33,3.583,0.436c3.719,0.248,5.055,0.504,5.109,0.512c0.087,0.01,0.852,0.094,1.961,0.163
			l0.001,0.001l0.128,0.007c0.798,0.048,1.755,0.088,2.784,0.088c0.04,0,0.082-0.002,0.122-0.002c0.2,0,0.399-0.002,0.594-0.005
			c0.006,0,0.012,0,0.018,0c0.001,0,0.001,0,0.001,0l0.004,0c-0.119,0.643-0.248,1.448-0.361,2.363
			c-0.003,0.028-0.007,0.055-0.01,0.083c-0.047,0.386-0.091,0.786-0.129,1.207c-0.003,0.03-0.005,0.061-0.007,0.091
			c-0.031,0.357-0.058,0.725-0.08,1.102c-0.007,0.111-0.013,0.221-0.018,0.333c-0.02,0.411-0.036,0.829-0.042,1.257
			c-0.001,0.053,0.001,0.108,0,0.162c-0.003,0.382,0.002,0.77,0.014,1.161c0.003,0.123,0.008,0.245,0.013,0.368
			c0.019,0.449,0.044,0.899,0.086,1.353c0.458,4.966,1.847,10.582,3.893,12.238c0.072,0.058,0.142,0.126,0.216,0.174
			c0.133,0.087,0.27,0.154,0.408,0.206c0.011,0.004,0.022,0.013,0.033,0.017l0,0c0,0,0.001,0,0.001,0
			c0.111,0.04,0.262,0.069,0.433,0.092c0.266,0.036,0.592,0.056,0.983,0.056c0.035,0,0.077-0.003,0.113-0.003
			c0.173-0.001,0.356-0.006,0.549-0.014c0.103-0.004,0.207-0.008,0.316-0.013c0.181-0.009,0.37-0.021,0.564-0.035
			c0.145-0.01,0.292-0.021,0.444-0.033c0.014-0.001,0.029-0.003,0.043-0.004c0.367-0.03,0.752-0.066,1.153-0.108
			c0.001,0,0.001,0,0.002,0c2.256-0.234,4.977-0.633,7.507-1.043c0.103-0.017,0.204-0.033,0.306-0.05
			c0.254-0.041,0.504-0.083,0.752-0.124c0.29-0.048,0.575-0.096,0.854-0.143c0.03-0.005,0.06-0.01,0.089-0.015
			c2.601-0.441,4.68-0.83,5.258-0.94c2.106-0.397,4.859-0.193,5.815-0.103c0.132,0.294,0.407,0.607,0.958,0.807
			c0.447,0.162,1.298,0.262,2.65,0.411c1.008,0.111,2.152,0.237,2.935,0.407c0.802,0.174,1.312,0.553,1.763,0.887
			c0.338,0.251,0.665,0.48,1.04,0.55l0.039,0.055l0.296-0.03c0.14-0.014,0.566-0.057,0.811-0.405
			c0.298-0.423,0.165-0.95-0.098-1.998l-0.049-0.193v0.001c-0.408-1.631-1.773-2.962-4.316-4.996c-0.917-0.733-1.87-1.587-2.71-2.34
			c-2.164-1.938-2.958-2.609-3.58-2.391c-0.007,0.002-0.014,0.001-0.02,0.004c-0.239,0.09-0.501,0.319-1.001,1.147l-0.024,0.039
			c-0.018,0.029-0.037,0.061-0.055,0.091l-0.276,0.457l0.009,0.002c-0.344,0.613-0.734,1.39-1.168,2.321
			c-0.442-0.06-1.004-0.129-1.733-0.219c-0.792-0.097-1.79-0.219-3.059-0.382c-5.004-0.641-10.62,0.104-12.42,0.413
			c0.028-0.216,0.078-0.501,0.141-0.831c0.126-0.652,0.31-1.489,0.508-2.37c0.078-0.347,0.158-0.699,0.238-1.051
			c0.25-1.1,0.527-2.322,0.802-3.601l0.008,0.021l0.349-1.73c0.03-0.148,0.057-0.29,0.086-0.435
			c0.015-0.077,0.031-0.155,0.046-0.232c0.048-0.246,0.094-0.487,0.139-0.725c0.011-0.061,0.023-0.123,0.035-0.184
			c0.048-0.257,0.094-0.509,0.138-0.756c0.006-0.035,0.013-0.07,0.019-0.105c0.047-0.264,0.092-0.521,0.135-0.771
			c0.003-0.02,0.007-0.041,0.01-0.061c0.045-0.264,0.088-0.52,0.128-0.769c0.001-0.006,0.002-0.012,0.003-0.018
			c0.158-0.973,0.283-1.824,0.379-2.525c0.367-0.056,0.724-0.113,1.061-0.17c0.743-0.127,1.411-0.26,1.984-0.415
			c2.27-0.616,8.824-2.669,13.2-4.125c0.548-0.182,1.068-0.357,1.536-0.516c1.704-0.581,3.291-1.363,4.971-2.191
			c2.665-1.313,5.422-2.671,9.127-3.501c0.217-0.048,0.416-0.093,0.622-0.139c0.349-0.076,0.637-0.139,0.878-0.191
			c0.458-0.098,0.776-0.167,1.138-0.254c2.797-0.611,4.283-0.906,4.914-1.026c0.175,0.263,0.467,0.516,0.974,0.608
			c0.52,0.09,1.071-0.105,1.606-0.297c0.388-0.139,0.79-0.283,1.1-0.283c0.925,0,2.206,0.156,3.026,0.594
			c0.193,0.103,0.409,0.238,0.639,0.38c0.67,0.416,1.504,0.919,2.286,0.979l-0.02,0.238l0.789-0.344
			c0.126-0.055,0.233-0.118,0.327-0.192c0.291-0.228,0.463-0.578,0.512-1.041C284.126,197.414,283.085,195.158,282.303,194.22z"/>
		<g>
			<path style="fill:#263238;" d="M206.438,323.621v-2.979l8.074-12.581c0.601-0.94,1.156-1.815,1.666-2.626
				c0.509-0.81,0.927-1.666,1.254-2.567c0.326-0.902,0.49-1.94,0.49-3.116c0-1.463-0.235-2.612-0.705-3.449
				c-0.471-0.836-1.294-1.254-2.47-1.254c-0.993,0-1.763,0.274-2.312,0.823c-0.549,0.548-0.928,1.267-1.137,2.155
				c-0.21,0.889-0.313,1.842-0.313,2.862v1.058h-4.194v-1.098c0-1.907,0.255-3.547,0.764-4.918c0.509-1.372,1.332-2.436,2.469-3.194
				c1.137-0.757,2.646-1.137,4.527-1.137c2.561,0,4.468,0.725,5.722,2.175c1.254,1.45,1.881,3.456,1.881,6.016
				c0,1.359-0.163,2.548-0.49,3.567c-0.327,1.019-0.751,1.973-1.274,2.861c-0.523,0.889-1.098,1.803-1.725,2.744l-7.29,11.131
				h10.033v3.528H206.438z"/>
			<path style="fill:#263238;" d="M225.172,323.621v-2.979l8.074-12.581c0.601-0.94,1.156-1.815,1.666-2.626
				c0.509-0.81,0.927-1.666,1.254-2.567c0.326-0.902,0.49-1.94,0.49-3.116c0-1.463-0.235-2.612-0.705-3.449
				c-0.471-0.836-1.294-1.254-2.469-1.254c-0.993,0-1.763,0.274-2.312,0.823c-0.549,0.548-0.928,1.267-1.137,2.155
				c-0.209,0.889-0.313,1.842-0.313,2.862v1.058h-4.194v-1.098c0-1.907,0.255-3.547,0.764-4.918
				c0.509-1.372,1.332-2.436,2.469-3.194c1.137-0.757,2.645-1.137,4.526-1.137c2.561,0,4.468,0.725,5.722,2.175
				c1.254,1.45,1.881,3.456,1.881,6.016c0,1.359-0.163,2.548-0.49,3.567c-0.327,1.019-0.751,1.973-1.274,2.861
				c-0.523,0.889-1.098,1.803-1.725,2.744l-7.29,11.131h10.033v3.528H225.172z"/>
		</g>
		<g>
			<path style="fill:#263238;" d="M214.24,120.867v-9.978h2.168c0.739,0,1.324,0.113,1.755,0.339
				c0.431,0.226,0.739,0.565,0.924,1.017c0.185,0.452,0.277,1.014,0.277,1.688v3.67c0,0.707-0.092,1.302-0.277,1.786
				c-0.185,0.485-0.485,0.852-0.899,1.102c-0.415,0.251-0.971,0.376-1.669,0.376H214.24z M215.632,119.868h0.788
				c0.509,0,0.871-0.098,1.084-0.295c0.214-0.198,0.343-0.485,0.388-0.863c0.045-0.377,0.068-0.834,0.068-1.367v-3.239
				c0-0.517-0.033-0.936-0.098-1.257c-0.066-0.32-0.21-0.554-0.432-0.702c-0.222-0.148-0.57-0.222-1.047-0.222h-0.752V119.868z"/>
			<path style="fill:#263238;" d="M220.19,120.867l2.119-9.978h1.343l2.131,9.978h-1.318l-0.456-2.513h-2.033l-0.48,2.513H220.19z
				 M222.161,117.356h1.663l-0.838-4.496L222.161,117.356z"/>
			<path style="fill:#263238;" d="M228.049,120.867v-3.523l-2.156-6.455h1.293l1.528,4.817l1.503-4.817h1.306l-2.143,6.455v3.523
				H228.049z"/>
			<path style="fill:#263238;" d="M236.597,120.867v-8.253c-0.008,0.008-0.1,0.033-0.277,0.074
				c-0.177,0.041-0.376,0.082-0.597,0.123c-0.222,0.041-0.419,0.078-0.591,0.111c-0.172,0.033-0.263,0.05-0.271,0.05v-0.998
				c0.14-0.033,0.302-0.078,0.487-0.135c0.185-0.058,0.373-0.127,0.567-0.21c0.193-0.082,0.377-0.185,0.554-0.308
				c0.177-0.123,0.327-0.267,0.45-0.431h0.998v9.978H236.597z"/>
		</g>
		<g>
			<circle style="fill:#263238;" cx="161.575" cy="354.659" r="8.892"/>
			<line style="fill:none;stroke:#263238;stroke-miterlimit:10;" x1="179.36" y1="356.883" x2="288.292" y2="356.883"/>
		</g>
		<g>
			<circle style="fill:#263238;" cx="161.575" cy="379.113" r="8.892"/>
			<line style="fill:none;stroke:#263238;stroke-miterlimit:10;" x1="179.36" y1="381.337" x2="288.292" y2="381.337"/>
		</g>
	</g>
</g>
<g id="Character">
	<g>
		<path style="fill:#263238;stroke:#263238;stroke-miterlimit:10;" d="M394.271,354.732c0,0,1.369,24.984,0.342,30.46
			c-1.027,5.476-2.396,20.535-3.08,28.407s-2.053,22.931-2.738,25.326c-0.685,2.396-5.567,2.053-5.567,2.053
			s-7.781-1.027-9.492-1.027c-1.711,0-11.979,1.027-11.979,1.027s2.396-2.738,4.449-3.765c2.054-1.027,9.436,0.693,10.536-1.536
			c1.1-2.229,2.812-8.389,3.154-13.866c0.342-5.476,2.738-73.583,2.738-73.583L394.271,354.732z"/>
		<path style="fill:#FFFFFF;stroke:#263238;stroke-miterlimit:10;" d="M327.935,300.378c0,0-2.421,6.399-1.038,9.339
			c1.384,2.94,3.805,5.534,2.421,8.128c-1.384,2.594-3.632,4.151-2.075,5.015c1.557,0.865,3.286,1.729,3.286,1.729
			s3.977,4.842,5.188,6.918c1.211,2.075,2.248,3.286,6.226,2.594c3.978-0.692,6.399-3.632,6.399-3.632s11.933,3.113,14.527,3.286
			c2.594,0.173,9.512,1.729,9.512,1.729s9.166,7.955,12.97,14.181c3.805,6.226,13.143,14.181,18.332,14.527
			c5.188,0.346,11.068-1.211,11.068-1.211s4.496,2.075,17.467,2.94c12.97,0.865,17.444,1.75,17.444,1.75s21.271,2.421,34.242-0.865
			s28.189-4.324,36.49-6.572c8.301-2.248,35.279-10.722,49.979-15.737c14.7-5.015,27.237-14.725,48.093-19.394
			c20.856-4.669,27.065-5.729,27.065-5.729s2.179-2.179-0.311-7.938c-2.49-5.759-5.448-6.226-7.004-6.226
			c-1.557,0-37.821,2.118-51.31,3.329s-25.683,9.745-32.081,12.339c-6.399,2.594-21.115-0.247-36.506,0.964
			c-15.392,1.211-27.843-5.015-38.565-2.767c-10.722,2.248-23.52,8.647-30.091,9.166c-6.572,0.519-13.294-2.787-18.482-5.035
			c-5.188-2.248-31.994-13.662-42.889-13.316c-10.895,0.346-16.256,2.421-16.256,2.421s-1.729-0.173-2.594-0.346
			c-0.865-0.173-0.346-3.286-11.587-10.203C346.612,294.844,330.529,295.536,327.935,300.378z"/>
		<g>
			<path style="fill:#263238;stroke:#263238;stroke-miterlimit:10;" d="M333.469,288.273c0,0-1.383,2.594-3.978,4.496
				c-2.594,1.902-6.745,1.211-6.399,4.842c0.346,3.632,9.166,11.068,15.737,12.625c6.572,1.556,3.978-0.865,3.978-0.865
				s2.594-4.669,5.88-2.248c3.286,2.421,2.075,6.572,2.075,6.572s5.707,0.865,8.647,3.632c2.94,2.767,5.361,0.692,10.376-3.113
				c5.015-3.805,2.248-9.339,1.211-11.414c-1.038-2.075,0.346-6.226-4.842-12.452c-5.188-6.226-8.993-9.166-18.677-8.993
				C337.792,281.528,333.469,288.273,333.469,288.273z"/>
			<path style="fill:#263238;stroke:#263238;stroke-miterlimit:10;" d="M370.905,291.295l10.937,5.469
				c-1.619-4.856-6.216-5.612-8.907-5.616c2.762-0.51,7.092-2.631,4.611-11.181c-3.516-12.109-24.609-14.453-28.905-9.765
				c-4.297,4.687-1.163,11.153-1.163,11.153s2.335,4.081,6.632,9.94c4.297,5.859,16.888,11.504,21.093,9.375
				C379.407,298.541,370.905,291.295,370.905,291.295z"/>
		</g>
		<path style="fill:none;stroke:#263238;stroke-miterlimit:10;" d="M350.762,313.695c0,0-0.173,1.038-1.038,2.594
			c-0.865,1.556-1.902,1.729-1.902,1.729s1.211,3.805,0.692,6.572"/>
		
			<line style="fill:none;stroke:#263238;stroke-linecap:round;stroke-linejoin:round;stroke-miterlimit:10;" x1="330.529" y1="313.349" x2="331.566" y2="315.943"/>
		<path style="fill:none;stroke:#263238;stroke-miterlimit:10;" d="M328.626,311.446c0,0,1.038-2.075,2.94-0.519"/>
		<path style="fill:none;stroke:#263238;stroke-miterlimit:10;" d="M332.604,325.8c0,0,1.383,0.346,2.248-2.421"/>
		<path style="fill:#92E3A9;stroke:#263238;stroke-miterlimit:10;" d="M381.297,310.399c-3.158,1.123-10.475,4.886-11.631,15.864
			c-0.317,3.012,0.14,5.989,1.138,8.879c0.944,0.201,1.576,0.343,1.576,0.343s9.166,7.955,12.97,14.181
			c3.805,6.226,13.143,14.181,18.332,14.527c5.188,0.346,11.068-1.211,11.068-1.211s1.405,0.646,4.896,1.368l0.61-0.33
			c0,0,10-26.842,10.923-40.814c-5.188-2.248-31.994-13.662-42.889-13.316C385.628,309.974,383.301,310.163,381.297,310.399z"/>
		<path style="fill:#FFFFFF;stroke:#263238;stroke-miterlimit:10;" d="M382.745,344.031c0,0,6.91,3.455,15.547-0.247
			c8.637-3.702,13.573-16.534,10.612-22.457c-2.961-5.923-15.054-11.599-23.938-10.118c-8.884,1.481-13.573,10.365-13.326,16.781
			C371.887,334.406,377.81,341.563,382.745,344.031z"/>
		<path style="fill:#FFFFFF;stroke:#263238;stroke-miterlimit:10;" d="M384.966,312.936c0,0-7.65-1.727-12.586,8.144
			c-4.936,9.871-4.442,20.729-2.221,27.639c2.221,6.91,2.9,40.476,3.22,41.188c0.32,0.712-2.059,6.656-0.237,14.905
			c1.822,8.25,3.601,30.865,3.601,30.865s-3.51,2.089-6.407,2.876c-2.897,0.787-11.613,2.904-14.731,3.961
			c-3.118,1.058,1.155,1.62,6.557,1.077c5.402-0.543,10.853-0.595,13.333-0.597c2.48-0.001,5.525,0.684,7.734-2.018
			c2.208-2.702,0.953-7.785,0.879-8.521c-0.074-0.737,3.371-35.534,4.4-40.102c1.029-4.568,1.809-14.071,1.809-14.071l0.572-41.163"
			/>
		<g>
			<path style="fill:#FFFFFF;stroke:#263238;stroke-miterlimit:10;" d="M471.412,365.053c0,0-4.689,18.508-2.961,37.264
				c1.728,18.755,7.403,38.991,14.313,41.459c6.91,2.468,55.772-6.416,64.903-8.144c9.131-1.727,21.47-0.247,21.47-0.247
				s-3.702-11.105-5.429-12.586c-1.727-1.481-2.715-1.234-21.963-3.702c-19.249-2.468-41.706,1.234-43.433,1.728
				c-1.727,0.494,2.715-15.547,6.416-33.562c3.702-18.015,4.936-30.847,4.936-30.847L471.412,365.053z"/>
			<path style="fill:#263238;stroke:#263238;stroke-miterlimit:10;" d="M559.512,420.825c0,0,5.923-12.833,7.897-13.573
				c1.974-0.74,11.105,8.884,19.742,15.794c8.637,6.91,12.833,11.105,14.066,16.041c1.234,4.936,1.728,6.416-0.74,6.663
				c-2.468,0.247-4.442-3.702-10.118-4.936c-5.676-1.234-16.041-1.728-18.755-2.715c-2.714-0.987-2.468-2.715-2.468-2.715
				l-5.429-12.586L559.512,420.825z"/>
			<path style="fill:#FFFFFF;stroke:#263238;stroke-miterlimit:10;" d="M601.218,439.086c-1.234-4.936-5.429-9.131-14.066-16.041
				c-8.637-6.91-17.768-16.534-19.742-15.794c-0.581,0.218-1.506,1.488-2.52,3.166c1.812,0.475,4.225,1.614,6.962,4.237
				c5.923,5.676,7.897,10.365,10.858,11.845c2.961,1.481,9.378,2.715,13.079,8.144c3.702,5.429,3.455,9.378,4.689,11.105
				C602.945,445.503,602.452,444.022,601.218,439.086z"/>
			<path style="fill:#92E3A9;stroke:#263238;stroke-miterlimit:10;" d="M545.695,435.996c-12.678,2.358-56.417,10.106-62.932,7.777
				c-6.907-2.465-12.581-22.706-14.312-41.459c-1.272-13.774,0.92-27.411,2.182-33.682c0.45-2.27,0.783-3.58,0.783-3.58l38.25-8.638
				c0,0-1.174,12.209-4.666,29.514c-0.088,0.44-0.186,0.88-0.274,1.33c-3.698,18.02-8.139,34.063-6.418,33.564
				c1.732-0.489,24.193-4.197,43.435-1.722c0.832,0.098,1.614,0.205,2.387,0.303C545.177,423.376,546.39,429.686,545.695,435.996z"
				/>
			<path style="fill:#263238;stroke:#263238;stroke-miterlimit:10;" d="M509.665,356.414c0,0-1.174,12.209-4.666,29.514l-1.203-3.13
				c-6.809-11.348-26.589-13.696-33.163-14.165c0.45-2.27,0.783-3.58,0.783-3.58L509.665,356.414z"/>
		</g>
		<g>
			<path style="fill:#263238;stroke:#263238;stroke-miterlimit:10;" d="M645.53,319.375c0,0,0.162,1.866,2.606,2.31
				c2.443,0.444,5.997-1.999,8.884-1.999c2.887,0,7.773,0.444,11.105,2.221s8.662,6.219,11.771,3.776
				c3.109-2.443-0.888-12.66-4.22-16.658c-3.332-3.998-11.327-5.331-15.325-7.329s-9.55-10.661-16.658-9.328
				c-7.107,1.333-9.55,12.882-9.55,12.882s5.997-0.666,9.106,3.554C646.359,313.023,645.53,319.375,645.53,319.375z"/>
			<path style="fill:#FFFFFF;stroke:#263238;stroke-miterlimit:10;" d="M679.162,326.107c0.255-0.109,0.502-0.242,0.734-0.424
				c3.109-2.443-0.888-12.66-4.22-16.658c-3.332-3.998-11.327-5.33-15.325-7.329c-3.998-1.999-9.55-10.661-16.658-9.328
				c-2.294,0.43-4.1,1.927-5.497,3.754c1.348-0.096,7.455-0.418,10.605,1.354c3.554,1.999,8.884,6.441,13.548,7.329
				c4.664,0.888,12.882,4.442,15.103,11.771C678.928,321.443,679.322,324.248,679.162,326.107z"/>
			<path style="fill:#92E3A9;stroke:#263238;stroke-miterlimit:10;" d="M631.31,322.119c-5.254,1.418-5.465,1.337-12.842,2.98
				c-20.857,4.676-33.398,14.381-48.102,19.399c-14.694,5.018-41.674,13.49-49.97,15.74c-8.306,2.24-23.527,3.287-36.499,6.564
				c-4.549,1.154-10.105,1.604-15.417,1.712c-4.079,0.068-8.002-0.059-11.201-0.235c-8.325-18.284-8.227-32.762-7.337-40.07
				c2.602-0.264,6.124-1.379,10.076-2.788c6.134-2.162,13.304-4.999,19.732-6.349c10.722-2.25,23.175,3.982,38.563,2.769
				c15.398-1.213,30.111,1.634,36.509-0.959c6.398-2.602,18.597-11.133,32.087-12.346c8.628-0.773,26.462-1.712,38.73-2.534
				C629.474,310.308,630.714,317.677,631.31,322.119z"/>
		</g>
		<path style="fill:#263238;stroke:#263238;stroke-miterlimit:10;" d="M468.48,368.515c-4.079,0.068-8.002-0.059-11.201-0.235
			c-8.325-18.284-8.227-32.762-7.337-40.07c2.602-0.264,6.124-1.379,10.076-2.788C461.28,335.459,464.283,356.668,468.48,368.515z"
			/>
	</g>
</g>
</svg>
