<?xml version="1.0" encoding="utf-8"?>
<!-- Generator: Adobe Illustrator 27.5.0, SVG Export Plug-In . SVG Version: 6.00 Build 0)  -->
<svg version="1.1" xmlns="http://www.w3.org/2000/svg" xmlns:xlink="http://www.w3.org/1999/xlink" x="0px" y="0px"
	 viewBox="0 0 500 500" style="enable-background:new 0 0 500 500;" xml:space="preserve">
<g id="Background_Simple">
	<g>
		<path style="opacity:0.7;fill:#FFFFFF;" d="M67.931,167.086c0,0-27.877,71.988,11.297,144.503
			c39.174,72.516,119.879,110.802,184.469,143.548c64.59,32.746,131.661,16.799,163.534-36.838
			c31.873-53.637-11.845-91.928-11.897-168.418c-0.051-76.49,11.447-96.742-29.963-161.364
			c-41.41-64.623-143.059-78.925-219.9-30.996C88.631,105.45,67.931,167.086,67.931,167.086z"/>
	</g>
	<g>
		<path style="fill:#92E3A9;" d="M38.917,282.722c-4.385-20.579-3.177-42.342,5.788-64.505
			c11.551-28.556,36.366-48.846,64.171-60.686c40.407-17.206,80.073-17.533,112.917-51.248c10.13-10.399,18.633-22.31,28.98-32.494
			c30.52-30.041,75.192-26.394,108.548-2.575c69.586,49.69,94.614,148.102,90.745,229.464c-1.737,36.513-19.169,70.495-46.759,94.45
			c-62.401,54.181-168.357,45.067-240.026,16.786C109.834,390.824,51.467,341.624,38.917,282.722z"/>
		<path style="opacity:0.7;fill:#FFFFFF;" d="M38.917,282.722c-4.385-20.579-3.177-42.342,5.788-64.505
			c11.551-28.556,36.366-48.846,64.171-60.686c40.407-17.206,80.073-17.533,112.917-51.248c10.13-10.399,18.633-22.31,28.98-32.494
			c30.52-30.041,75.192-26.394,108.548-2.575c69.586,49.69,94.614,148.102,90.745,229.464c-1.737,36.513-19.169,70.495-46.759,94.45
			c-62.401,54.181-168.357,45.067-240.026,16.786C109.834,390.824,51.467,341.624,38.917,282.722z"/>
	</g>
</g>
<g id="Plant">
	<g>
		
			<line style="fill:none;stroke:#263238;stroke-linecap:round;stroke-linejoin:round;stroke-miterlimit:10;" x1="63.851" y1="480" x2="436.149" y2="480"/>
		<g>
			<g>
				<path style="fill:none;stroke:#263238;stroke-linecap:round;stroke-linejoin:round;stroke-miterlimit:10;" d="M342.341,426.559
					c0,0,15.053,1.188,15.681,12.294C358.021,438.853,342.779,445.871,342.341,426.559z"/>
				<path style="fill:none;stroke:#263238;stroke-linecap:round;stroke-linejoin:round;stroke-miterlimit:10;" d="M372.118,429.317
					c0,0,8.41-11.369,21.997-5.539C394.116,423.778,385.818,437.523,372.118,429.317z"/>
				<path style="fill:none;stroke:#263238;stroke-linecap:round;stroke-linejoin:round;stroke-miterlimit:10;" d="M392.964,393.42
					c0,0,2.418,21.874-17.492,15.85C375.472,409.271,381.795,393.19,392.964,393.42z"/>
				<path style="fill:none;stroke:#263238;stroke-linecap:round;stroke-linejoin:round;stroke-miterlimit:10;" d="M368.519,381.244
					c0,0,15.746,8.491,4.169,21.376C372.687,402.62,361.644,393.418,368.519,381.244z"/>
				<path style="fill:none;stroke:#263238;stroke-linecap:round;stroke-linejoin:round;stroke-miterlimit:10;" d="M349.144,400.79
					c0,0,17.12-1.727,17.12,14.121C366.264,414.91,349.144,415.585,349.144,400.79z"/>
				<path style="fill:none;stroke:#263238;stroke-linecap:round;stroke-linejoin:round;stroke-miterlimit:10;" d="M361.975,447.8
					c-0.249-5.316-0.247-12.157,3-19.388c7.492-16.683,10.026-30.731,6.111-40.634"/>
				<path style="fill:none;stroke:#263238;stroke-linecap:round;stroke-linejoin:round;stroke-miterlimit:10;" d="M354.768,405.05
					c0,0,10.262,4.077,13.75,14.648"/>
				<path style="fill:none;stroke:#263238;stroke-linecap:round;stroke-linejoin:round;stroke-miterlimit:10;" d="M387.552,402.172
					c0,0-5.93,8.078-15.977,7.206"/>
				<path style="fill:none;stroke:#263238;stroke-linecap:round;stroke-linejoin:round;stroke-miterlimit:10;" d="M387.552,426.101
					c0,0-16.424,4.732-22.952,3.183"/>
				<path style="fill:none;stroke:#263238;stroke-linecap:round;stroke-linejoin:round;stroke-miterlimit:10;" d="M347.249,431.56
					c0,0,7.342,8.058,14.725,7.932"/>
			</g>
			<path style="fill:none;stroke:#263238;stroke-miterlimit:10;" d="M381.502,447.8h-35.691c-0.48,0-0.869,0.389-0.869,0.869v2.706
				c0,0.48,0.389,0.869,0.869,0.869h1.042L350.033,480h27.246l3.181-27.756h1.042c0.48,0,0.869-0.389,0.869-0.869v-2.706
				C382.37,448.189,381.981,447.8,381.502,447.8z"/>
			
				<line style="fill:none;stroke:#263238;stroke-linecap:round;stroke-linejoin:round;stroke-miterlimit:10;" x1="349.144" y1="452.244" x2="369.903" y2="452.244"/>
			
				<line style="fill:none;stroke:#263238;stroke-linecap:round;stroke-linejoin:round;stroke-miterlimit:10;" x1="373.818" y1="452.244" x2="376.937" y2="452.244"/>
		</g>
		<g>
			<g>
				<path style="fill:none;stroke:#263238;stroke-linecap:round;stroke-linejoin:round;stroke-miterlimit:10;" d="M189.127,463.348
					c-3.833-4.375-15.837,6.733-15.837,6.733c3.609-10.112,12.932-15.315,15.337-24.637c2.406-9.323-4.511-13.834-7.218-3.418
					c-2.707,10.416-10.376,22.602-10.376,22.602c4.864-16.769,6.272-44.75,0.26-44.747c-4.712,0.002-4.802,6.437-3.46,17.865
					c1.342,11.428-1.612,27.958-1.612,27.958s-2.556-18.457-5.918-22.019c-3.362-3.562-8.968-2.452-2.689,11.801
					c3.835,8.704,4.971,18.199,5.275,24.513h9.098c2.179-4.102,5.772-8.55,11.462-11.275
					C185.822,467.589,191.287,465.814,189.127,463.348z"/>
				<path style="fill:none;stroke:#263238;stroke-linecap:round;stroke-linejoin:round;stroke-miterlimit:10;" d="M167.338,480
					c2.033-14.649,5.269-30.007,4.336-45.198"/>
				<path style="fill:none;stroke:#263238;stroke-linecap:round;stroke-linejoin:round;stroke-miterlimit:10;" d="M160.793,454.772
					c3.408,7.711,4.713,16.878,5.368,25.228"/>
				<path style="fill:none;stroke:#263238;stroke-linecap:round;stroke-linejoin:round;stroke-miterlimit:10;" d="M183.835,447.859
					c0,0-7.826,16.515-14.986,22.851"/>
				<path style="fill:none;stroke:#263238;stroke-linecap:round;stroke-linejoin:round;stroke-miterlimit:10;" d="M183.835,465.652
					c0,0-13.227,9.13-16.47,14.348"/>
			</g>
			<path style="fill:none;stroke:#263238;stroke-linecap:round;stroke-linejoin:round;stroke-miterlimit:10;" d="M179.98,446.573
				c-1.241-2.112-3.769-1.901-5.481-0.087"/>
			<path style="fill:none;stroke:#263238;stroke-linecap:round;stroke-linejoin:round;stroke-miterlimit:10;" d="M161.276,467.263
				c0,0-7.112-11.274-9.819-21.69c-2.707-10.416-9.624-5.905-7.218,3.418c2.406,9.323,11.729,14.525,15.337,24.637
				c0,0-12.004-11.108-15.837-6.733c-2.16,2.466,3.305,4.241,5.676,5.376c4.094,1.96,7.098,4.667,9.276,7.728h13.003"/>
			<path style="fill:none;stroke:#263238;stroke-linecap:round;stroke-linejoin:round;stroke-miterlimit:10;" d="M167.087,427.819
				c-1.188-3.907-2.777-5.124-5.514-4.391c-3.702,0.992-1.035,11.077,0.344,23.145"/>
		</g>
	</g>
</g>
<g id="Icons">
	<g>
		<polyline style="fill:none;stroke:#263238;stroke-linecap:round;stroke-linejoin:round;stroke-miterlimit:10;" points="
			218.891,97.558 218.891,120.552 227.464,129.187 		"/>
		<path style="fill:#FFFFFF;stroke:#263238;stroke-linecap:round;stroke-linejoin:round;stroke-miterlimit:10;" d="M229.056,129.187
			c0,0.879-0.713,1.592-1.592,1.592c-0.879,0-1.592-0.713-1.592-1.592c0-0.879,0.713-1.592,1.592-1.592
			C228.343,127.595,229.056,128.308,229.056,129.187z"/>
		<path style="fill:#FFFFFF;stroke:#263238;stroke-linecap:round;stroke-linejoin:round;stroke-miterlimit:10;" d="M246.011,98.558
			h-53.381c-4.366,0-7.905-3.539-7.905-7.905V37.273c0-4.366,3.539-7.905,7.905-7.905h53.381c4.366,0,7.905,3.539,7.905,7.905
			v53.381C253.916,95.019,250.377,98.558,246.011,98.558z"/>
	</g>
	<g>
		<path style="fill:#FFFFFF;stroke:#263238;stroke-linecap:round;stroke-linejoin:round;stroke-miterlimit:10;" d="M423.335,164.859
			h-53.381c-4.366,0-7.905-3.539-7.905-7.905v-53.381c0-4.366,3.539-7.905,7.905-7.905h53.381c4.366,0,7.905,3.539,7.905,7.905
			v53.381C431.24,161.32,427.701,164.859,423.335,164.859z"/>
		<polyline style="fill:none;stroke:#263238;stroke-linecap:round;stroke-linejoin:round;stroke-miterlimit:10;" points="
			362.05,130.264 298.546,130.264 278.341,150.561 		"/>
		<path style="fill:#FFFFFF;stroke:#263238;stroke-linecap:round;stroke-linejoin:round;stroke-miterlimit:10;" d="M279.933,150.561
			c0,0.879-0.713,1.592-1.592,1.592c-0.879,0-1.592-0.713-1.592-1.592c0-0.879,0.713-1.592,1.592-1.592
			C279.22,148.969,279.933,149.682,279.933,150.561z"/>
	</g>
	<g>
		<path style="fill:#FFFFFF;stroke:#263238;stroke-linecap:round;stroke-linejoin:round;stroke-miterlimit:10;" d="M449.074,352.004
			h-53.381c-4.366,0-7.905-3.539-7.905-7.905v-53.381c0-4.366,3.539-7.905,7.905-7.905h53.381c4.366,0,7.905,3.539,7.905,7.905
			v53.381C456.979,348.465,453.44,352.004,449.074,352.004z"/>
		<polyline style="fill:none;stroke:#263238;stroke-linecap:round;stroke-linejoin:round;stroke-miterlimit:10;" points="
			387.789,317.409 350.298,317.409 293.471,260.581 		"/>
		<path style="fill:#FFFFFF;stroke:#263238;stroke-linecap:round;stroke-linejoin:round;stroke-miterlimit:10;" d="M295.062,260.581
			c0,0.879-0.713,1.592-1.592,1.592c-0.879,0-1.592-0.713-1.592-1.592s0.713-1.592,1.592-1.592
			C294.35,258.99,295.062,259.702,295.062,260.581z"/>
	</g>
	<g>
		<path style="fill:#FFFFFF;stroke:#263238;stroke-linecap:round;stroke-linejoin:round;stroke-miterlimit:10;" d="M136.547,412.182
			H83.166c-4.366,0-7.905-3.539-7.905-7.905v-53.381c0-4.366,3.539-7.905,7.905-7.905h53.381c4.366,0,7.905,3.539,7.905,7.905
			v53.381C144.451,408.643,140.912,412.182,136.547,412.182z"/>
		<polyline style="fill:none;stroke:#263238;stroke-linecap:round;stroke-linejoin:round;stroke-miterlimit:10;" points="
			109.856,342.992 109.856,312.283 166.434,270.021 		"/>
		<path style="fill:#FFFFFF;stroke:#263238;stroke-linecap:round;stroke-linejoin:round;stroke-miterlimit:10;" d="M168.025,270.021
			c0,0.879-0.713,1.592-1.592,1.592c-0.879,0-1.592-0.713-1.592-1.592s0.713-1.592,1.592-1.592
			C167.313,268.429,168.025,269.142,168.025,270.021z"/>
	</g>
	<g>
		<path style="fill:#FFFFFF;stroke:#263238;stroke-linecap:round;stroke-linejoin:round;stroke-miterlimit:10;" d="M114.426,216.451
			H61.045c-4.366,0-7.904-3.539-7.904-7.905v-53.381c0-4.366,3.539-7.905,7.904-7.905h53.381c4.366,0,7.905,3.539,7.905,7.905
			v53.381C122.33,212.912,118.791,216.451,114.426,216.451z"/>
		
			<line style="fill:none;stroke:#263238;stroke-linecap:round;stroke-linejoin:round;stroke-miterlimit:10;" x1="122.33" y1="181.856" x2="196.722" y2="181.856"/>
		<path style="fill:#FFFFFF;stroke:#263238;stroke-linecap:round;stroke-linejoin:round;stroke-miterlimit:10;" d="M198.314,181.856
			c0,0.879-0.713,1.592-1.592,1.592s-1.592-0.713-1.592-1.592c0-0.879,0.713-1.592,1.592-1.592S198.314,180.977,198.314,181.856z"/>
	</g>
	<g>
		<path style="fill:#92E3A9;stroke:#263238;stroke-linecap:round;stroke-linejoin:round;stroke-miterlimit:10;" d="M113.202,197.501
			H62.268c-1.956,0-3.542-1.586-3.542-3.542v-24.873c0-1.956,1.586-3.542,3.542-3.542h50.934c1.956,0,3.542,1.586,3.542,3.542
			v24.873C116.744,195.915,115.158,197.501,113.202,197.501z"/>
		<rect x="70.062" y="165.544" style="fill:#FFFFFF;" width="35.346" height="31.956"/>
		
			<line style="fill:#FFFFFF;stroke:#263238;stroke-linecap:round;stroke-linejoin:round;stroke-miterlimit:10;" x1="70.062" y1="186.354" x2="70.062" y2="182.941"/>
		<polyline style="fill:none;stroke:#263238;stroke-linecap:round;stroke-linejoin:round;stroke-miterlimit:10;" points="
			105.408,192.128 105.408,197.501 70.062,197.501 70.062,188.454 		"/>
		
			<line style="fill:#FFFFFF;stroke:#263238;stroke-linecap:round;stroke-linejoin:round;stroke-miterlimit:10;" x1="105.408" y1="174.148" x2="105.408" y2="181.522"/>
		<polyline style="fill:none;stroke:#263238;stroke-linecap:round;stroke-linejoin:round;stroke-miterlimit:10;" points="
			70.062,171.786 70.062,165.544 105.408,165.544 105.408,170.736 		"/>
		<g>
			<path style="fill:#263238;" d="M113.118,188.542c0,1.193-0.967,2.16-2.16,2.16c-1.193,0-2.16-0.967-2.16-2.16
				c0-1.193,0.967-2.16,2.16-2.16C112.151,186.382,113.118,187.349,113.118,188.542z"/>
			<g>
				<path style="fill:#263238;" d="M112.038,173.423c0,0.596-0.483,1.08-1.08,1.08c-0.596,0-1.08-0.484-1.08-1.08
					c0-0.597,0.483-1.08,1.08-1.08C111.554,172.343,112.038,172.826,112.038,173.423z"/>
				<path style="fill:#263238;" d="M112.038,177.742c0,0.596-0.483,1.08-1.08,1.08c-0.596,0-1.08-0.484-1.08-1.08
					c0-0.596,0.483-1.08,1.08-1.08C111.554,176.662,112.038,177.146,112.038,177.742z"/>
				<path style="fill:#263238;" d="M113.118,176.662c-0.597,0-1.08-0.484-1.08-1.08c0-0.597,0.483-1.08,1.08-1.08
					c0.596,0,1.08,0.483,1.08,1.08C114.198,176.179,113.714,176.662,113.118,176.662z"/>
				<path style="fill:#263238;" d="M108.798,176.662c-0.596,0-1.08-0.484-1.08-1.08c0-0.597,0.484-1.08,1.08-1.08
					c0.596,0,1.08,0.483,1.08,1.08C109.878,176.179,109.394,176.662,108.798,176.662z"/>
			</g>
			<circle style="fill:#263238;" cx="64.513" cy="174.503" r="2.16"/>
			<g>
				<path style="fill:#263238;" d="M63.433,189.622c0-0.596,0.483-1.08,1.08-1.08c0.596,0,1.08,0.483,1.08,1.08
					c0,0.596-0.483,1.08-1.08,1.08C63.916,190.702,63.433,190.218,63.433,189.622z"/>
				<path style="fill:#263238;" d="M63.433,185.302c0-0.596,0.483-1.08,1.08-1.08c0.596,0,1.08,0.484,1.08,1.08
					c0,0.597-0.483,1.08-1.08,1.08C63.916,186.382,63.433,185.899,63.433,185.302z"/>
				<path style="fill:#263238;" d="M62.353,186.382c0.597,0,1.08,0.484,1.08,1.08c0,0.596-0.484,1.08-1.08,1.08
					c-0.596,0-1.08-0.484-1.08-1.08C61.273,186.866,61.756,186.382,62.353,186.382z"/>
				<path style="fill:#263238;" d="M66.673,186.382c0.596,0,1.08,0.484,1.08,1.08c0,0.596-0.484,1.08-1.08,1.08
					c-0.596,0-1.08-0.484-1.08-1.08C65.593,186.866,66.076,186.382,66.673,186.382z"/>
			</g>
		</g>
		<rect x="72.774" y="168.398" style="fill:#263238;" width="29.923" height="26.248"/>
	</g>
	<g>
		<path style="fill:#92E3A9;stroke:#263238;stroke-linecap:round;stroke-linejoin:round;stroke-miterlimit:10;" d="M389.824,122.032
			c0,0-4.241-7.286-10.18-7.264c-5.938,0.022-5.232,15.045,8.553,15.045L389.824,122.032z"/>
		<path style="fill:#92E3A9;stroke:#263238;stroke-linecap:round;stroke-linejoin:round;stroke-miterlimit:10;" d="M392.369,150.561
			c0,0-12.725-45.668,2.828-45.668c15.552,0,5.938,44.875,5.938,44.875L392.369,150.561z"/>
		<path style="fill:#92E3A9;stroke:#263238;stroke-linecap:round;stroke-linejoin:round;stroke-miterlimit:10;" d="M401.984,129.812
			c0,0,10.18-10.498,15.552-7.105c5.373,3.393-6.221,13.849-15.552,13.57"/>
		<path style="fill:none;stroke:#263238;stroke-linecap:round;stroke-linejoin:round;stroke-miterlimit:10;" d="M391.924,131.008
			c0.555,3.97,1.111,7.954,1.136,11.97"/>
		<path style="fill:none;stroke:#263238;stroke-linecap:round;stroke-linejoin:round;stroke-miterlimit:10;" d="M392.107,110.901
			c-1.558,5.565-1.318,11.336-0.598,17.012"/>
		<path style="fill:none;stroke:#263238;stroke-linecap:round;stroke-linejoin:round;stroke-miterlimit:10;" d="M395.197,104.893
			c-0.781,1.084-1.446,2.251-2.026,3.453"/>
		<path style="fill:none;stroke:#263238;stroke-linecap:round;stroke-linejoin:round;stroke-miterlimit:10;" d="M397.727,135.429
			c0.177,3.865,0.282,7.735,0.317,11.604"/>
		<path style="fill:none;stroke:#263238;stroke-linecap:round;stroke-linejoin:round;stroke-miterlimit:10;" d="M396.608,118.383
			c0.01,4.753,0.684,9.468,0.97,14.206"/>
		<path style="fill:none;stroke:#263238;stroke-linecap:round;stroke-linejoin:round;stroke-miterlimit:10;" d="M398.538,106.619
			c-2.115,2.18-1.96,6.041-1.936,8.853"/>
		<path style="fill:none;stroke:#263238;stroke-linecap:round;stroke-linejoin:round;stroke-miterlimit:10;" d="M409.004,127.645
			c2.368-1.507,6.638-4.723,9.657-3.714"/>
		<path style="fill:none;stroke:#263238;stroke-linecap:round;stroke-linejoin:round;stroke-miterlimit:10;" d="M401.984,132.589
			c1.509-1.168,3.056-2.287,4.63-3.364"/>
		<path style="fill:none;stroke:#263238;stroke-linecap:round;stroke-linejoin:round;stroke-miterlimit:10;" d="M380.08,121.029
			c1.842,2.483,4.553,4.189,7.387,5.333"/>
		<path style="fill:none;stroke:#263238;stroke-linecap:round;stroke-linejoin:round;stroke-miterlimit:10;" d="M378.028,115.229
			c-0.018,1.172,0.257,2.34,0.703,3.421"/>
		<polygon style="fill:#263238;" points="410.319,157.535 383.725,157.535 381.725,145.945 412.319,145.945 		"/>
	</g>
	<g>
		<g>
			<g>
				<path style="fill:none;stroke:#263238;stroke-linecap:round;stroke-linejoin:round;stroke-miterlimit:10;" d="M225.112,42.752
					c0,0,0.495-2.631,3.956-2.235c3.462,0.396,3.066,5.341-0.989,6.231c-4.055,0.89-5.403,0.537-5.835,2.064
					c-0.462,1.629,1.418,2.453,2.341,1.53"/>
				<path style="fill:none;stroke:#263238;stroke-linecap:round;stroke-linejoin:round;stroke-miterlimit:10;" d="M212.477,42.752
					c0,0-0.495-2.631-3.956-2.235c-3.462,0.396-3.066,5.341,0.989,6.231c4.055,0.89,5.403,0.537,5.835,2.064
					c0.462,1.629-1.417,2.453-2.341,1.53"/>
			</g>
			<g>
				<path style="fill:#92E3A9;stroke:#263238;stroke-linecap:round;stroke-linejoin:round;stroke-miterlimit:10;" d="
					M222.095,47.982c3.682-2.464,3.392-8.059,3.392-8.059h-13.386c0,0-0.29,5.596,3.392,8.059c3.682,2.463,2.702,8.508-0.003,9.717
					h6.607C219.393,56.49,218.413,50.446,222.095,47.982z"/>
				
					<rect x="213.47" y="57.699" style="fill:#757575;stroke:#263238;stroke-linecap:round;stroke-linejoin:round;stroke-miterlimit:10;" width="10.649" height="4.031"/>
			</g>
		</g>
		
			<rect x="209.478" y="61.73" style="fill:#92E3A9;stroke:#263238;stroke-linecap:round;stroke-linejoin:round;stroke-miterlimit:10;" width="18.633" height="27.918"/>
		
			<rect x="228.111" y="71.015" style="fill:#92E3A9;stroke:#263238;stroke-linecap:round;stroke-linejoin:round;stroke-miterlimit:10;" width="18.633" height="18.633"/>
		
			<rect x="190.844" y="77.392" style="fill:#92E3A9;stroke:#263238;stroke-linecap:round;stroke-linejoin:round;stroke-miterlimit:10;" width="18.633" height="12.257"/>
		<g>
			<path style="fill:#263238;" d="M217.364,72.09c0.878,0,1.074-0.423,1.25-0.909h0.764v7.231h-1.136v-5.516h-0.878V72.09z"/>
		</g>
		<g>
			<path style="fill:#263238;" d="M236.709,77.835c-0.361,0-0.588,0.196-0.588,0.713v0.775h-1.075V78.62
				c0-1.157,0.579-1.818,1.694-1.818c1.116,0,1.694,0.661,1.694,1.818c0,0.961-0.351,1.735-1.405,2.861
				c-0.671,0.723-0.857,1.064-0.857,1.446c0,0.052,0,0.104,0.01,0.155h2.149v1.033h-3.285v-0.888c0-0.806,0.29-1.416,1.136-2.304
				c0.868-0.919,1.116-1.488,1.116-2.262C237.298,78.01,237.071,77.835,236.709,77.835z"/>
		</g>
		<g>
			<path style="fill:#263238;" d="M200.381,81.555c0-0.65-0.227-0.826-0.589-0.826c-0.361,0-0.588,0.196-0.588,0.713v0.465h-1.075
				v-0.393c0-1.157,0.579-1.818,1.694-1.818c1.116,0,1.694,0.661,1.694,1.818V81.7c0,0.774-0.248,1.25-0.795,1.477v0.021
				c0.568,0.248,0.795,0.775,0.795,1.508v0.568c0,1.157-0.579,1.818-1.694,1.818c-1.116,0-1.694-0.661-1.694-1.818v-0.599h1.075
				v0.671c0,0.517,0.227,0.713,0.588,0.713c0.362,0,0.589-0.176,0.589-0.816v-0.568c0-0.671-0.227-0.919-0.744-0.919h-0.382v-1.033
				h0.444c0.423,0,0.682-0.186,0.682-0.764V81.555z"/>
		</g>
	</g>
	<g>
		
			<rect x="81.426" y="357.461" style="fill:none;stroke:#263238;stroke-linecap:round;stroke-linejoin:round;stroke-miterlimit:10;" width="56.718" height="44.571"/>
		<g>
			<defs>
				
					<rect id="XMLID_172_" x="90.836" y="354.724" transform="matrix(-1.836970e-16 1 -1 -1.836970e-16 489.5334 269.9619)" width="37.9" height="50.047"/>
			</defs>
			<use xlink:href="#XMLID_172_"  style="overflow:visible;fill:#92E3A9;"/>
			<clipPath id="XMLID_00000145779366434203366950000003654809879101885080_">
				<use xlink:href="#XMLID_172_"  style="overflow:visible;"/>
			</clipPath>
			<polygon style="opacity:0.5;clip-path:url(#XMLID_00000145779366434203366950000003654809879101885080_);fill:#FFFFFF;" points="
				134.809,378.428 134.809,371.39 120.369,392.697 110.526,386.807 128.637,360.797 122.919,360.797 115.012,372.027 
				107.561,368.242 107.561,360.797 102.686,360.797 102.686,370.364 112.436,375.687 106.361,384.315 84.762,371.39 
				84.762,376.228 104.12,387.498 96.235,398.698 102.246,398.698 108.336,389.952 123.359,398.698 130.396,398.698 
				123.821,394.763 			"/>
			
				<use xlink:href="#XMLID_172_"  style="overflow:visible;fill:none;stroke:#263238;stroke-linecap:round;stroke-linejoin:round;stroke-miterlimit:10;"/>
		</g>
		<g>
			<path style="fill:#263238;" d="M130.88,351.367L130.88,351.367c-4.028-4.029-10.56-4.029-14.589,0l0,0
				c-4.029,4.029-4.029,10.56,0,14.589l7.294,7.294l7.294-7.294C134.909,361.927,134.909,355.395,130.88,351.367z M126.59,361.664
				L126.59,361.664c-1.659,1.659-4.348,1.659-6.007,0c-1.659-1.659-1.659-4.348,0-6.007s4.348-1.659,6.007,0l0,0
				C128.248,357.316,128.248,360.006,126.59,361.664z"/>
		</g>
	</g>
	<g>
		<g>
			<path style="fill:#92E3A9;stroke:#263238;stroke-linecap:round;stroke-linejoin:round;stroke-miterlimit:10;" d="
				M422.735,295.919L422.735,295.919c-14.14,11.561-14.14,30.306,0,41.868h0C436.875,326.225,436.875,307.481,422.735,295.919z"/>
			
				<line style="fill:none;stroke:#263238;stroke-linecap:round;stroke-linejoin:round;stroke-miterlimit:10;" x1="422.735" y1="337.787" x2="422.735" y2="301.418"/>
			<polyline style="fill:none;stroke:#263238;stroke-linecap:round;stroke-linejoin:round;stroke-miterlimit:10;" points="
				426.931,307.067 422.735,311.263 418.539,307.067 			"/>
			<polyline style="fill:none;stroke:#263238;stroke-linecap:round;stroke-linejoin:round;stroke-miterlimit:10;" points="
				426.931,315.311 422.735,319.507 418.539,315.311 			"/>
			<polyline style="fill:none;stroke:#263238;stroke-linecap:round;stroke-linejoin:round;stroke-miterlimit:10;" points="
				426.931,323.555 422.735,327.751 418.539,323.555 			"/>
		</g>
		<g>
			<path style="fill:none;stroke:#263238;stroke-linecap:round;stroke-linejoin:round;stroke-miterlimit:10;" d="M447.16,302.566
				c0-3.468-2.02-7.28-4.513-7.28c-2.492,0-4.513,3.812-4.513,7.28c0,2.893,1.413,4.615,3.326,5.113V336.6
				c0,0.655,0.531,1.187,1.187,1.187c0.656,0,1.187-0.531,1.187-1.187v-28.921C445.747,307.181,447.16,305.459,447.16,302.566z"/>
			<path style="fill:none;stroke:#263238;stroke-linecap:round;stroke-linejoin:round;stroke-miterlimit:10;" d="M406.608,296.078
				c-0.038-0.448-0.413-0.792-0.863-0.792h-0.614v6.28h-1.483v-5.414c0-0.478-0.388-0.866-0.866-0.866
				c-0.478,0-0.866,0.388-0.866,0.866v5.414h-1.483v-6.28h-0.614c-0.45,0-0.825,0.344-0.863,0.792l-0.635,7.481
				c-0.16,1.887,1.328,3.508,3.223,3.508h0.051V336.6c0,0.655,0.531,1.187,1.187,1.187c0.655,0,1.187-0.531,1.187-1.187v-29.533
				h0.051c1.894,0,3.383-1.62,3.222-3.508L406.608,296.078z"/>
		</g>
	</g>
</g>
<g id="Character">
	<g>
		<g>
			<path style="fill:#92E3A9;stroke:#263238;stroke-linecap:round;stroke-linejoin:round;stroke-miterlimit:10;" d="
				M275.095,455.738l-1.041,2.932c0,0,2.41,4.046,5.079,7.148c0,0,1.028-0.326,2.644,1.124c1.616,1.451,1.763,3.76,1.763,3.76
				s7.634,9.163,17.331,9.295c9.698,0.132,6.766-4.747,6.766-4.747L275.095,455.738z"/>
			<g>
				<defs>
					<path id="XMLID_171_" d="M284.202,432.426c0,0,12.994-4.791,15.546,4.791c0,0-2.32,10.553-0.928,16.316
						c1.392,5.763,8.384,16.788,8.817,18.887c0.845,4.094,0.208,4.372,0.208,4.372s-5.092,2.942-11.925-0.208
						c-6.834-3.151-18.678-16.706-20.535-19.496c-1.856-2.791,5.801-13.83,5.801-13.83L284.202,432.426z"/>
				</defs>
				<use xlink:href="#XMLID_171_"  style="overflow:visible;fill:#FFFFFF;"/>
				<clipPath id="XMLID_00000038386475184468484540000004725787815117019807_">
					<use xlink:href="#XMLID_171_"  style="overflow:visible;"/>
				</clipPath>
				<path style="opacity:0.4;clip-path:url(#XMLID_00000038386475184468484540000004725787815117019807_);fill:#92E3A9;" d="
					M284.202,432.426c0,0,12.994-4.791,15.546,4.791c0,0-2.32,10.553-0.928,16.316c1.392,5.763,8.384,16.788,8.817,18.887
					c0.845,4.094,0.208,4.372,0.208,4.372s-5.092,2.942-11.925-0.208c-6.834-3.151-18.678-16.706-20.535-19.496
					c-1.856-2.791,5.801-13.83,5.801-13.83L284.202,432.426z"/>
				
					<use xlink:href="#XMLID_171_"  style="overflow:visible;fill:none;stroke:#263238;stroke-linecap:round;stroke-linejoin:round;stroke-miterlimit:10;"/>
			</g>
			<path style="fill:#92E3A9;stroke:#263238;stroke-linecap:round;stroke-linejoin:round;stroke-miterlimit:10;" d="
				M281.186,443.257c0,0,0.355,13.678,2.985,16.455c2.63,2.777,4.641,0,4.641,0s-0.232,4.166-4.37,3.333
				c-4.138-0.833-4.313-10.74-4.519-17.867L281.186,443.257z"/>
			<path style="fill:none;stroke:#263238;stroke-linecap:round;stroke-linejoin:round;stroke-miterlimit:10;" d="M290.854,445.973
				c0,0-2.159,9.571,3.252,18.806"/>
			<path style="fill:#92E3A9;stroke:#263238;stroke-linecap:round;stroke-linejoin:round;stroke-miterlimit:10;" d="
				M294.105,467.276c0,0,1.389,3.965,5.565,5.143c4.177,1.178,7.966,0,7.966,0l-3.121-6.327
				C304.516,466.093,299.987,468.176,294.105,467.276z"/>
			<path style="fill:none;stroke:#263238;stroke-linecap:round;stroke-linejoin:round;stroke-miterlimit:10;" d="M292.267,463.466
				c0,0,6.799,0.406,10.35-0.98"/>
			<path style="fill:none;stroke:#263238;stroke-linecap:round;stroke-linejoin:round;stroke-miterlimit:10;" d="M291.008,459.712
				c0,0,6.355,0.972,9.906-1.042"/>
			<path style="fill:none;stroke:#263238;stroke-linecap:round;stroke-linejoin:round;stroke-miterlimit:10;" d="M289.926,455.546
				c0,0,5.574,0.814,9.207-0.912"/>
			<path style="fill:none;stroke:#263238;stroke-linecap:round;stroke-linejoin:round;stroke-miterlimit:10;" d="M289.307,450.825
				c0,0,6.197,1.944,9.131,0"/>
			<path style="fill:#92E3A9;stroke:#263238;stroke-linecap:round;stroke-linejoin:round;stroke-miterlimit:10;" d="M288.379,439.16
				l-1.083,6.813c0,0,8.198,5.407,13.619-1.344l-0.025-7.109C300.89,437.52,298.878,442.314,288.379,439.16z"/>
		</g>
		<path style="fill:#FFFFFF;stroke:#263238;stroke-linecap:round;stroke-linejoin:round;stroke-miterlimit:10;" d="M235.312,267.162
			c0,0-12.044,34.928-6.695,57.815c5.349,22.888,6.986,32.28,6.695,44.727c-0.291,12.447,12.645,77.103,12.645,77.103h11.86
			c0,0-1.759-56.009-1.673-69.563c0.086-13.554-2.449-9.862,0.665-23.049c3.113-13.187,0.803-26.374,5.123-40.615
			c0,0,23.309,40.088,27.529,45.89c0,0-4.688,17.611-4.165,32.579c0.613,17.531-0.932,43.921-0.932,43.921s2.647,4.951,9.9,2.966
			c0,0,18.933-78.107,17.878-81.951c-1.055-3.845-8.44-46.141-28.707-74.196c0,0-3.469-11.934-5.842-19.582L235.312,267.162z"/>
		<g>
			<defs>
				<path id="XMLID_166_" d="M235.312,267.162c0,0-16.149,23.196-8.065,60.853c0,0,1.708,1.963,3.884-4.282
					c0,0,3.461,12.066,31.846,4.282l1.637-8.634l6.101,8.634c0,0,12.125-18.524,29.49-21.689c0,0-7.742-16.126-14.771-25.668
					l-5.842-17.453L235.312,267.162z"/>
			</defs>
			<use xlink:href="#XMLID_166_"  style="overflow:visible;fill:#263238;"/>
			<clipPath id="XMLID_00000167359903856232009660000016198596141972466575_">
				<use xlink:href="#XMLID_166_"  style="overflow:visible;"/>
			</clipPath>
			
				<path style="clip-path:url(#XMLID_00000167359903856232009660000016198596141972466575_);fill:none;stroke:#FFFFFF;stroke-linecap:round;stroke-linejoin:round;stroke-miterlimit:10;" d="
				M265.061,316.854c0,0,0.025-1.56,1.871-6.175c1.783-4.457,6.857-14.506,11.604-15.297"/>
			
				<path style="clip-path:url(#XMLID_00000167359903856232009660000016198596141972466575_);fill:none;stroke:#FFFFFF;stroke-linecap:round;stroke-linejoin:round;stroke-miterlimit:10;" d="
				M269.306,298.421c0,0-4.747,10.676-13.714,14.104"/>
			<path style="clip-path:url(#XMLID_00000167359903856232009660000016198596141972466575_);fill:#92E3A9;" d="M263.378,325.897
				l-0.4,2.12c-28.39,7.78-31.85-4.28-31.85-4.28c-2.17,6.24-3.88,4.28-3.88,4.28c-0.05-0.23-0.1-0.47-0.14-0.7
				c2.16-2.84,2.84-7.93,2.84-7.93c-0.99-32.64,4.74-43.89,4.74-43.89h3.17c-4.55,7.74-4.75,43.89-4.75,43.89s0.99,5.93,11.67,8.3
				C251.158,329.107,259.148,327.187,263.378,325.897z"/>
			<path style="clip-path:url(#XMLID_00000167359903856232009660000016198596141972466575_);fill:#92E3A9;" d="M300.208,306.327
				c-17.37,3.17-29.49,21.69-29.49,21.69l-0.8-1.12v-0.01c2.48-4.61,12.24-21.07,26.68-22.93c0,0,0.67-0.96,1.02-2.79
				C299.218,304.257,300.208,306.327,300.208,306.327z"/>
			<path style="opacity:0.2;clip-path:url(#XMLID_00000167359903856232009660000016198596141972466575_);" d="M271.578,302.147
				c0,0,2.22,10.2,3.3,20.52c-2.68,3.08-4.16,5.35-4.16,5.35l-5.78-8.18C265.538,315.347,267.188,307.217,271.578,302.147z"/>
			<path style="opacity:0.2;clip-path:url(#XMLID_00000167359903856232009660000016198596141972466575_);" d="M286.098,281.567
				c-7.32,3.13-25.17,11.23-34.46,19.6c-9.25,8.34-18.66,14.1-26.36,13.49c-2.35-29.71,10.03-47.49,10.03-47.49l44.28-3.96
				l5.85,17.45C285.658,280.957,285.878,281.257,286.098,281.567z"/>
			<use xlink:href="#XMLID_166_"  style="overflow:visible;fill:none;stroke:#263238;stroke-miterlimit:10;"/>
		</g>
		<g>
			<g>
				<defs>
					<path id="XMLID_170_" d="M244.976,445.382c0,0,5.539-3.956,17.011-3.165c0,0,0.831,13.752,2.393,17.755
						c1.563,4.003,9.784,10.926,11.311,12.113c1.527,1.187,1.527,5.341,1.527,5.341h-34.813c0,0,0.593-9.203,2.769-17.657
						L244.976,445.382z"/>
				</defs>
				<use xlink:href="#XMLID_170_"  style="overflow:visible;fill:#FFFFFF;"/>
				<clipPath id="XMLID_00000136387784073739874120000003400613314116224688_">
					<use xlink:href="#XMLID_170_"  style="overflow:visible;"/>
				</clipPath>
				<path style="opacity:0.4;clip-path:url(#XMLID_00000136387784073739874120000003400613314116224688_);fill:#92E3A9;" d="
					M244.976,445.382c0,0,5.539-3.956,17.011-3.165c0,0,0.831,13.752,2.393,17.755c1.563,4.003,9.784,10.926,11.311,12.113
					c1.527,1.187,1.527,5.341,1.527,5.341h-34.813c0,0,0.593-9.203,2.769-17.657L244.976,445.382z"/>
				
					<use xlink:href="#XMLID_170_"  style="overflow:visible;fill:none;stroke:#263238;stroke-linecap:round;stroke-linejoin:round;stroke-miterlimit:10;"/>
			</g>
			<path style="fill:#92E3A9;stroke:#263238;stroke-linecap:round;stroke-linejoin:round;stroke-miterlimit:10;" d="
				M245.174,459.769c0,0,3.429,6.91,5.802,7.833c2.374,0.923,2.637-2.242,2.637-2.242s0.659,4.615-1.055,5.275
				c-1.714,0.659-6.085-3.594-7.988-8.324L245.174,459.769z"/>
			<path style="fill:none;stroke:#263238;stroke-linecap:round;stroke-linejoin:round;stroke-miterlimit:10;" d="M252.163,447.162
				c0,0,0.823,12.659,2.785,15.956c1.962,3.297,3.86,5.011,3.86,5.011"/>
			<path style="fill:#92E3A9;stroke:#263238;stroke-linecap:round;stroke-linejoin:round;stroke-miterlimit:10;" d="
				M259.812,469.909c0,0,1.747,2.176,3.692,2.473c1.945,0.297,12.188-0.297,12.188-0.297l-4.177-3.611
				C271.514,468.474,262.977,467.041,259.812,469.909z"/>
			<path style="fill:none;stroke:#263238;stroke-linecap:round;stroke-linejoin:round;stroke-miterlimit:10;" d="M256.152,466.942
				c0,0,7.423-4.266,12.711-1.045"/>
			<path style="fill:none;stroke:#263238;stroke-linecap:round;stroke-linejoin:round;stroke-miterlimit:10;" d="M254.362,464.047
				c0,0,5.182-4.05,11.294-1.827"/>
			<path style="fill:none;stroke:#263238;stroke-linecap:round;stroke-linejoin:round;stroke-miterlimit:10;" d="M252.163,459.635
				c0,0,5.576-4.333,11.458-1.573"/>
			<path style="fill:none;stroke:#263238;stroke-linecap:round;stroke-linejoin:round;stroke-miterlimit:10;" d="M251.405,454.126
				c0,0,6.764-3.638,11.69-0.879"/>
			<path style="fill:#92E3A9;stroke:#263238;stroke-linecap:round;stroke-linejoin:round;stroke-miterlimit:10;" d="
				M242.405,477.426v2.572h3.988c0,0,3.429-1.978,6.693,0c0,0,15.527,0,18.791,0c3.264,0,5.736-1.286,5.736-1.286l-0.396-1.286
				H242.405z"/>
			<path style="fill:#92E3A9;stroke:#263238;stroke-linecap:round;stroke-linejoin:round;stroke-miterlimit:10;" d="
				M247.393,444.592l0.891,5.603c0,0,10.45-3.388,16.22-1.187v-6.896C264.504,442.112,253.755,438.33,247.393,444.592z"/>
		</g>
		<path style="fill:#FFFFFF;stroke:#263238;stroke-linecap:round;stroke-linejoin:round;stroke-miterlimit:10;" d="M216.861,199.972
			c-4.85-4.032-51.401,44.047-50.412,48.003c0.989,3.956,23.742,48.467,27.5,50.445c3.758,1.978,18.355,6.337,19.487,1.582
			l-14.324-7.689c0,0-5.164-9.591-9.789-26.329c-2.663-9.638-5.666-17.614-5.666-17.614s21.363-21.476,27.692-23.496
			c6.33-2.02,9.726-2.62,9.726-2.62S223.361,205.376,216.861,199.972z"/>
		<path style="fill:#FFFFFF;stroke:#263238;stroke-linecap:round;stroke-linejoin:round;stroke-miterlimit:10;" d="M274.647,192.724
			c8.805-3.115,16.43,6.061,25.732,12.098c8.352,5.42,15.259,9.672,15.259,9.672c-8.634-10.784-8.413-23.749-19.102-44.122
			l6.824-3.422c0,0,18.833,26.061,26.806,44.205c4.133,9.406,3.339,17.646,3.339,17.646s-3.307,5.174-12.272,2.843
			c-14.228-3.699-30.077-14.485-38.001-16.246L274.647,192.724z"/>
		<g>
			<g>
				<defs>
					<path id="XMLID_167_" d="M274.647,192.391c0,0,11.836,17.025,13.138,23.547c1.302,6.521-8.193,27.719-4.632,51.851
						c0,0,6.433,12.56,2.282,12.871c0,0-6.974-1.498-14.479,4.173c-12.51,9.452-31.62,23.077-45.969,23.077
						c0,0-5.678-1.978-4.02-5.538s4.014-7.121,4.014-7.121s3.543-47.868,0-57.758c-1.24-3.46-3.906-15.238-3.906-15.238
						c-0.56-16.674-4.384-23.293-4.384-23.293s9.863-2.546,30.843-2.579C247.534,196.383,270.867,191.688,274.647,192.391z"/>
				</defs>
				<use xlink:href="#XMLID_167_"  style="overflow:visible;fill:#92E3A9;"/>
				<clipPath id="XMLID_00000142890742807803613520000007392006723945235635_">
					<use xlink:href="#XMLID_167_"  style="overflow:visible;"/>
				</clipPath>
				<path style="opacity:0.2;clip-path:url(#XMLID_00000142890742807803613520000007392006723945235635_);" d="M267.328,258.287
					c0,0-3.52,19.42-16.72,29.18c-13.21,9.76-23.11,11.16-23.97,14.68c-0.46,1.91,0.41,4.13,2.67,5.39
					c-1.48,0.24-2.92,0.37-4.32,0.37c0,0-5.68-1.98-4.02-5.54s4.01-7.12,4.01-7.12s3.55-47.86,0-57.75
					c-1.24-3.47-3.9-15.24-3.9-15.24c-0.13-3.97-0.45-7.37-0.86-10.25c1.7-0.84,3.48-1.4,5.34-1.65c0,0,9.01,11.5,9.23,21.89
					c0.23,10.39,23.73,6.44,27.8,3.27c4.08-3.17,8.13,1.58,8.13,1.58s-12.22,16.64-26.2,22.56c-13.98,5.92-11.59,23.85-3.75,22.01
					C248.608,279.827,263.078,265.137,267.328,258.287z"/>
				
					<use xlink:href="#XMLID_167_"  style="overflow:visible;fill:none;stroke:#263238;stroke-linecap:round;stroke-linejoin:round;stroke-miterlimit:10;"/>
			</g>
			<g>
				<defs>
					<path id="XMLID_169_" d="M270.955,192.649c0,0-0.548-3.421,4.737-3.025c5.285,0.396,10.001,12.381,9.918,20.729
						C285.609,210.353,276.164,195.476,270.955,192.649z"/>
				</defs>
				<use xlink:href="#XMLID_169_"  style="overflow:visible;fill:#92E3A9;"/>
				<clipPath id="XMLID_00000042697615872042844240000011230334646294407583_">
					<use xlink:href="#XMLID_169_"  style="overflow:visible;"/>
				</clipPath>
				<path style="opacity:0.4;clip-path:url(#XMLID_00000042697615872042844240000011230334646294407583_);fill:#FFFFFF;" d="
					M270.955,192.649c0,0-0.548-3.421,4.737-3.025c5.285,0.396,10.001,12.381,9.918,20.729
					C285.609,210.353,276.164,195.476,270.955,192.649z"/>
				
					<use xlink:href="#XMLID_169_"  style="overflow:visible;fill:none;stroke:#263238;stroke-linecap:round;stroke-linejoin:round;stroke-miterlimit:10;"/>
			</g>
			<g>
				<defs>
					<path id="XMLID_168_" d="M221.076,222.254c0,0,2.567-1.642,3.905-6.784c2.266-8.703-2.786-17.508-2.786-17.508
						c-2.396-3.459-9.065-1.487-7.482,2.01C216.295,203.47,220.292,206.472,221.076,222.254z"/>
				</defs>
				<use xlink:href="#XMLID_168_"  style="overflow:visible;fill:#92E3A9;"/>
				<clipPath id="XMLID_00000051343521920525806400000007006773212993747847_">
					<use xlink:href="#XMLID_168_"  style="overflow:visible;"/>
				</clipPath>
				<path style="opacity:0.4;clip-path:url(#XMLID_00000051343521920525806400000007006773212993747847_);fill:#FFFFFF;" d="
					M221.076,222.254c0,0,2.567-1.642,3.905-6.784c2.266-8.703-2.786-17.508-2.786-17.508c-2.396-3.459-9.065-1.487-7.482,2.01
					C216.295,203.47,220.292,206.472,221.076,222.254z"/>
				
					<use xlink:href="#XMLID_168_"  style="overflow:visible;fill:none;stroke:#263238;stroke-linecap:round;stroke-linejoin:round;stroke-miterlimit:10;"/>
			</g>
			<path style="fill:none;stroke:#263238;stroke-linecap:round;stroke-linejoin:round;stroke-miterlimit:10;" d="M278.546,238.158
				c-6.577,13.886-14.95,27.527-26.091,38.223c-3.55,3.408-7.426,6.503-11.687,8.979"/>
			<path style="fill:none;stroke:#263238;stroke-linecap:round;stroke-linejoin:round;stroke-miterlimit:10;" d="M281.174,232.248
				c-0.447,1.1-0.922,2.188-1.409,3.271"/>
			<path style="fill:none;stroke:#263238;stroke-linecap:round;stroke-linejoin:round;stroke-miterlimit:10;" d="M237.5,240.132
				c7.694,2.798,16.258,2.475,23.275-1.981"/>
			<path style="fill:none;stroke:#263238;stroke-linecap:round;stroke-linejoin:round;stroke-miterlimit:10;" d="M231.528,237.096
				c1.007,0.77,2.14,1.373,3.284,1.914"/>
			<path style="fill:none;stroke:#263238;stroke-linecap:round;stroke-linejoin:round;stroke-miterlimit:10;" d="M263.19,206.767
				c0,0-1,10.813-17.354,10.022"/>
			<path style="fill:none;stroke:#263238;stroke-linecap:round;stroke-linejoin:round;stroke-miterlimit:10;" d="M221.465,200.964
				c0,0-2.948,4.442-1.931,9.388"/>
			<path style="fill:none;stroke:#263238;stroke-linecap:round;stroke-linejoin:round;stroke-miterlimit:10;" d="M276.421,195.01
				c0,0,3.958-2.578,7.257,4.589"/>
		</g>
		<g>
			
				<circle style="fill:#92E3A9;stroke:#263238;stroke-linecap:round;stroke-linejoin:round;stroke-miterlimit:10;" cx="213.437" cy="277.121" r="22.882"/>
			
				<ellipse transform="matrix(0.762 -0.6476 0.6476 0.762 -127.4043 201.1488)" style="opacity:0.4;fill:#FFFFFF;" cx="209.957" cy="273.906" rx="17.157" ry="17.157"/>
			<path style="fill:none;stroke:#263238;stroke-linecap:round;stroke-linejoin:round;stroke-miterlimit:10;" d="M191.8,269.678
				c0,0,8.078,18.847,24.891,20.825c16.813,1.978,19.097-8.481,19.097-8.481"/>
			<path style="fill:none;stroke:#263238;stroke-linecap:round;stroke-linejoin:round;stroke-miterlimit:10;" d="M221.465,255.691
				c7.443,4.572,9.995,47.603-16.388,42.73"/>
			<path style="fill:none;stroke:#263238;stroke-linecap:round;stroke-linejoin:round;stroke-miterlimit:10;" d="M203.018,256.748
				c0.482,2.867,1.693,6.886,4.706,10.414c5.407,6.33,7.897,15.978,4.26,22.299c-2.807,4.879-8.718,6.134-15.261,3.281"/>
			<path style="fill:none;stroke:#263238;stroke-linecap:round;stroke-linejoin:round;stroke-miterlimit:10;" d="M235.467,270.935
				c0.851,9.28-2.776,9.586-6.523,18.316c-0.982,2.288-1.407,4.336-1.48,6.131"/>
		</g>
		<g>
			<path style="fill:#FFFFFF;stroke:#263238;stroke-linecap:round;stroke-linejoin:round;stroke-miterlimit:10;" d="
				M254.268,211.117c-11.53,0.92-22.6-12.66-22.6-12.66s6.25-0.26,7.04-3.12c2.52-9.02-3.7-20.92-3.7-20.92s27.57,3.01,22.23,8.87
				c-1.12,1.23-1.92,2.43-2.49,3.57c-2.01,3.98-1.1,7.18-0.27,8.01c0.06,0.06,0.13,0.11,0.19,0.15c1.61,0.9,8.57,0.32,8.57,0.32
				S264.788,210.277,254.268,211.117z"/>
			<path style="fill:none;stroke:#263238;stroke-linecap:round;stroke-linejoin:round;stroke-miterlimit:10;" d="M235.303,202.263
				c0,0,5.076,2.526,12.814,2.526l3.325,1.978"/>
			<path style="fill:none;stroke:#263238;stroke-linecap:round;stroke-linejoin:round;stroke-miterlimit:10;" d="M254.911,206.767
				l0.439-2.252c0,0,5.811-1.315,7.84-4.542"/>
			<path style="fill:#263238;" d="M254.478,194.867c-8.642,1.525-11.734-9.652-11.734-9.652s6.934-1.468,12.004,1.642
				C252.738,190.837,253.648,194.037,254.478,194.867z"/>
		</g>
		<g>
			<path style="fill:#263238;" d="M240.625,144.525c0,0,2.176-5.736-10.484-7.714c-12.659-1.978-21.56,12.011-15.429,24.797
				c6.132,12.786-1.978,23.071,3.165,27.818c5.143,4.747,8.765,0.791,8.765,0.791s-1.05,0.861-4.215-3.526
				c-3.165-4.387,5.143-4.596,5.736-20.612c0.593-16.016,8.248-11.664,8.248-11.664L240.625,144.525z"/>
			<path style="fill:#92E3A9;stroke:#263238;stroke-linecap:round;stroke-linejoin:round;stroke-miterlimit:10;" d="
				M240.766,143.563c0,0,0.061-2.365-5.973-2.365c-6.035,0-9.595,9.231-4.188,12.923
				C236.011,157.813,240.766,143.563,240.766,143.563z"/>
			<path style="fill:#263238;" d="M263.57,145.602c0,0,8.949,6.193,7.145,17.887c-1.804,11.695-8.775,22.178-22.597,20.794
				s-24.125-10.787-20.871-27.091C231.67,135.03,263.57,138.21,263.57,145.602z"/>
			<path style="fill:#FFFFFF;stroke:#263238;stroke-linecap:round;stroke-linejoin:round;stroke-miterlimit:10;" d="
				M254.774,145.841c18.835,2.776,9.746,30.531,7.795,37.422c-0.721,2.548-8.647,10.026-12.197,9.342
				c-2.777-0.535-12.638-8.859-13.142-12.306C235.887,171.122,233.579,142.717,254.774,145.841z"/>
			<path style="fill:none;stroke:#263238;stroke-linecap:round;stroke-linejoin:round;stroke-miterlimit:10;" d="M257.361,166.079
				c0,1.306-1.086,5.021,1.469,7.614c1.653,1.678-2.555,2.427-2.555,2.427"/>
			<path style="fill:none;stroke:#263238;stroke-linecap:round;stroke-linejoin:round;stroke-miterlimit:10;" d="M258.21,162.266
				c0,0,4.035-2.109,6.404,1.224"/>
			<path style="fill:none;stroke:#263238;stroke-linecap:round;stroke-linejoin:round;stroke-miterlimit:10;" d="M251.72,163.937
				c0,0-3.929-4.164-7.204-3.412"/>
			<path style="fill:#263238;" d="M261.779,169.147c-0.147,0.767-0.715,1.304-1.269,1.198c-0.554-0.106-0.885-0.814-0.738-1.581
				c0.147-0.767,0.715-1.304,1.269-1.198C261.595,167.672,261.926,168.38,261.779,169.147z"/>
			<path style="fill:none;stroke:#263238;stroke-linecap:round;stroke-linejoin:round;stroke-miterlimit:10;" d="M249.552,168.251
				c0,0-1.783-0.748-3.715-0.71"/>
			<path style="fill:none;stroke:#263238;stroke-linecap:round;stroke-linejoin:round;stroke-miterlimit:10;" d="M248.568,177.347
				c0,0,2.885,3.088,6.782,3.832"/>
			<path style="fill:none;stroke:#263238;stroke-linecap:round;stroke-linejoin:round;stroke-miterlimit:10;" d="M249.713,178.385
				c0,0-0.099,2.826,1.7,3.733c1.799,0.907,3.498-1.036,3.498-1.036"/>
			<path style="fill:#263238;" d="M268.476,152.455c0,0,0.347,1.82-11.754,5.143c-11.709,3.215-18.261,5.133-19.936,13.223
				c0,0-4.209-6.156-4.052-12.875s6.944-15.691,21.505-14.224C268.8,145.19,268.476,152.455,268.476,152.455z"/>
			<path style="fill:#FFFFFF;stroke:#263238;stroke-linecap:round;stroke-linejoin:round;stroke-miterlimit:10;" d="
				M237.899,168.278c0.292-1.526-3.282-5.762-4.804-3.353c-2.594,4.105-1.262,7.976,0.942,9.629
				c0.987,0.741,2.205,2.076,3.225,0.992"/>
			<path style="opacity:0.2;fill:none;stroke:#FFFFFF;stroke-linecap:round;stroke-linejoin:round;stroke-miterlimit:10;" d="
				M260.776,143.563c0,0,5.027,3.852-1.561,8.589c-6.588,4.738-27.546,8.282-27.546,8.282"/>
			<path style="opacity:0.2;fill:none;stroke:#FFFFFF;stroke-linecap:round;stroke-linejoin:round;stroke-miterlimit:10;" d="
				M256.275,146.868c0,0-9.814,6.701-23.545,5.131"/>
			<path style="opacity:0.2;fill:none;stroke:#FFFFFF;stroke-linecap:round;stroke-linejoin:round;stroke-miterlimit:10;" d="
				M226.748,142.78c0,0-7.487-1.103-10.057,5.185s2.722,15.952,3.702,22.856s-1.072,9.443-1.072,9.443"/>
		</g>
		<g>
			<path style="fill:#FFFFFF;stroke:#263238;stroke-linecap:round;stroke-linejoin:round;stroke-miterlimit:10;" d="M299.5,175.995
				c0,0-2.37,0.171-6.032-1.987s-11.572-2.891-11.572-2.891s-0.056-2.395,2.927-2.221c2.983,0.174,7.747-0.391,7.747-0.391
				s-1.177-8.328-0.357-9.31c0.819-0.982,10.566-1.939,11.929-0.723c1.363,1.217,7.108,15.877,1.49,16.817"/>
			<path style="fill:#FFFFFF;stroke:#263238;stroke-linecap:round;stroke-linejoin:round;stroke-miterlimit:10;" d="
				M292.213,159.195c-0.962-0.033-1.654,6.977-1.456,6.884c0.198-0.093,2.176,1.648,2.967,1.816
				c0.791,0.168,1.681-0.356,1.681-0.356s6.349,0.267,7.378,0c1.029-0.267,1.622-1.992,0.831-3.602"/>
			<path style="fill:none;stroke:#263238;stroke-linecap:round;stroke-linejoin:round;stroke-miterlimit:10;" d="M303.526,160.942
				c0,0,0.301,2.473-0.873,4.154"/>
			<path style="fill:none;stroke:#263238;stroke-linecap:round;stroke-linejoin:round;stroke-miterlimit:10;" d="M295.405,167.539
				c0,0-2.275-2.456-2.176-3.34c0.099-0.884,0.894-3.257,0.894-3.257"/>
			<path style="fill:none;stroke:#263238;stroke-linecap:round;stroke-linejoin:round;stroke-miterlimit:10;" d="M297.977,167.539
				c0,0-1.681-2.374-1.582-3.298c0.099-0.925,0.789-3.806,0.789-3.806"/>
			<path style="fill:none;stroke:#263238;stroke-linecap:round;stroke-linejoin:round;stroke-miterlimit:10;" d="M300.955,167.654
				c-0.704-0.976-1.1-2.502-0.902-3.668c0.198-1.165,0.902-3.044,0.902-3.044"/>
			<path style="fill:none;stroke:#263238;stroke-linecap:round;stroke-linejoin:round;stroke-miterlimit:10;" d="M292.57,168.505
				c0,0,2.967-0.607,5.406,1.602"/>
		</g>
	</g>
</g>
</svg>
