<?xml version="1.0" encoding="utf-8"?>
<!-- Generator: Adobe Illustrator 27.5.0, SVG Export Plug-In . SVG Version: 6.00 Build 0)  -->
<svg version="1.1" xmlns="http://www.w3.org/2000/svg" xmlns:xlink="http://www.w3.org/1999/xlink" x="0px" y="0px"
	 viewBox="0 0 500 500" style="enable-background:new 0 0 500 500;" xml:space="preserve">
<g id="Background_Simple_1_">
	<g>
		<g>
			<path style="fill:#92E3A9;" d="M406.571,105.144C350.687,77.096,283.434,76.136,223.583,94.28S110.663,149.401,67.782,194.876
				c-11.685,12.392-22.889,25.78-28.915,41.702c-5.636,14.894-6.413,31.151-6.22,47.071c0.195,16.093,1.43,32.635,8.385,47.153
				c6.955,14.518,20.776,26.719,36.871,27.55c17.305,0.893,32.305-10.795,46.912-20.104c22.647-14.433,48.208-24.287,74.692-28.794
				c14.271-2.428,29.04-3.3,43.14-0.026c15.084,3.502,28.638,11.535,42.413,18.601c33.969,17.424,74.675,29.403,109.91,14.692
				c34.975-14.602,55.521-52.835,59.259-90.506S461.444,132.684,406.571,105.144z"/>
		</g>
		<g style="opacity:0.7;">
			<path style="fill:#FFFFFF;" d="M406.571,105.144C350.687,77.096,283.434,76.136,223.583,94.28S110.663,149.401,67.782,194.876
				c-11.685,12.392-22.889,25.78-28.915,41.702c-5.636,14.894-6.413,31.151-6.22,47.071c0.195,16.093,1.43,32.635,8.385,47.153
				c6.955,14.518,20.776,26.719,36.871,27.55c17.305,0.893,32.305-10.795,46.912-20.104c22.647-14.433,48.208-24.287,74.692-28.794
				c14.271-2.428,29.04-3.3,43.14-0.026c15.084,3.502,28.638,11.535,42.413,18.601c33.969,17.424,74.675,29.403,109.91,14.692
				c34.975-14.602,55.521-52.835,59.259-90.506S461.444,132.684,406.571,105.144z"/>
		</g>
	</g>
</g>
<g id="_Mirror">
	<g>
		<polyline style="fill:none;stroke:#263238;stroke-linecap:round;stroke-linejoin:round;stroke-miterlimit:10;" points="
			76.17,274.91 76.17,95.99 414.53,95.99 414.53,283.457 		"/>
		<g>
			
				<line style="fill:none;stroke:#263238;stroke-linecap:round;stroke-linejoin:round;stroke-miterlimit:10;" x1="155.259" y1="137.841" x2="117.559" y2="183.452"/>
			
				<line style="fill:none;stroke:#263238;stroke-linecap:round;stroke-linejoin:round;stroke-miterlimit:10;" x1="161.044" y1="130.842" x2="157.177" y2="135.52"/>
		</g>
		
			<line style="fill:none;stroke:#263238;stroke-linecap:round;stroke-linejoin:round;stroke-miterlimit:10;" x1="268.401" y1="137.841" x2="254.17" y2="155.058"/>
		
			<line style="fill:none;stroke:#263238;stroke-linecap:round;stroke-linejoin:round;stroke-miterlimit:10;" x1="274.186" y1="130.842" x2="270.319" y2="135.52"/>
		<g>
			
				<line style="fill:none;stroke:#263238;stroke-linecap:round;stroke-linejoin:round;stroke-miterlimit:10;" x1="95.536" y1="244.173" x2="92.232" y2="248.171"/>
			
				<line style="fill:none;stroke:#263238;stroke-linecap:round;stroke-linejoin:round;stroke-miterlimit:10;" x1="135.717" y1="195.561" x2="98.731" y2="240.309"/>
		</g>
		<g>
			
				<line style="fill:none;stroke:#263238;stroke-linecap:round;stroke-linejoin:round;stroke-miterlimit:10;" x1="175.135" y1="297.229" x2="139.302" y2="340.583"/>
			
				<line style="fill:none;stroke:#263238;stroke-linecap:round;stroke-linejoin:round;stroke-miterlimit:10;" x1="182.787" y1="287.972" x2="177.779" y2="294.03"/>
		</g>
		<g>
			
				<line style="fill:none;stroke:#263238;stroke-linecap:round;stroke-linejoin:round;stroke-miterlimit:10;" x1="341.77" y1="244.173" x2="338.465" y2="248.171"/>
			
				<line style="fill:none;stroke:#263238;stroke-linecap:round;stroke-linejoin:round;stroke-miterlimit:10;" x1="381.951" y1="195.561" x2="344.964" y2="240.309"/>
		</g>
		<g>
			
				<line style="fill:none;stroke:#263238;stroke-linecap:round;stroke-linejoin:round;stroke-miterlimit:10;" x1="378.869" y1="297.229" x2="343.035" y2="340.583"/>
			
				<line style="fill:none;stroke:#263238;stroke-linecap:round;stroke-linejoin:round;stroke-miterlimit:10;" x1="386.52" y1="287.972" x2="381.513" y2="294.03"/>
		</g>
		<polyline style="fill:none;stroke:#263238;stroke-linecap:round;stroke-linejoin:round;stroke-miterlimit:10;" points="
			414.53,274.91 414.53,358.66 76.17,358.66 76.17,274.91 		"/>
		<g>
			
				<line style="fill:none;stroke:#263238;stroke-linecap:round;stroke-linejoin:round;stroke-miterlimit:10;" x1="306.71" y1="368.77" x2="306.71" y2="274.91"/>
			
				<line style="fill:none;stroke:#263238;stroke-linecap:round;stroke-linejoin:round;stroke-miterlimit:10;" x1="306.71" y1="274.91" x2="306.71" y2="96.46"/>
			
				<line style="fill:#FFFFFF;stroke:#263238;stroke-linecap:round;stroke-linejoin:round;stroke-miterlimit:10;" x1="193.984" y1="96.434" x2="193.984" y2="369.741"/>
		</g>
		<polygon style="fill:none;stroke:#263238;stroke-linecap:round;stroke-linejoin:round;stroke-miterlimit:10;" points="
			311.891,274.914 306.71,312.142 306.71,274.914 		"/>
		<polygon style="fill:none;stroke:#263238;stroke-linecap:round;stroke-linejoin:round;stroke-miterlimit:10;" points="
			420.393,274.914 414.526,310.956 414.526,274.914 		"/>
		<polygon style="fill:none;stroke:#263238;stroke-linecap:round;stroke-linejoin:round;stroke-miterlimit:10;" points="
			188.756,274.914 193.937,312.142 193.937,274.914 		"/>
		<polygon style="fill:none;stroke:#263238;stroke-linecap:round;stroke-linejoin:round;stroke-miterlimit:10;" points="
			70.563,274.914 76.429,310.956 76.429,274.914 		"/>
		<path style="fill:#263238;" d="M419.796,275.733h-348.3c-3.288,0-3.288-8.725,0-8.725h348.3
			C423.084,267.008,423.084,275.733,419.796,275.733z"/>
	</g>
</g>
<g id="Floor">
	
		<line style="fill:#FFFFFF;stroke:#263238;stroke-linecap:round;stroke-linejoin:round;stroke-miterlimit:10;" x1="55.99" y1="426.549" x2="440.578" y2="426.549"/>
</g>
<g id="Dumbbells">
	<g>
		<path style="fill:#7A7A7A;" d="M83.134,412.797c-4.634,0-8.398-2.093-8.398-4.681c0-2.582,3.764-4.681,8.398-4.681
			c4.64,0,8.405,2.099,8.405,4.681C91.539,410.705,87.775,412.797,83.134,412.797z"/>
		<g>
			<g>
				<path style="fill:#7A7A7A;" d="M83.134,449.663c-4.634,0-8.398-2.093-8.398-4.681v-10.456c0,2.589,3.764,4.681,8.398,4.681
					c4.64,0,8.405-2.093,8.405-4.681v10.456C91.539,447.57,87.775,449.663,83.134,449.663z"/>
				<path style="fill:#7A7A7A;" d="M83.134,439.206c-4.634,0-8.398-2.093-8.398-4.681c0-2.582,3.764-4.681,8.398-4.681
					c4.64,0,8.405,2.099,8.405,4.681C91.539,437.114,87.775,439.206,83.134,439.206z"/>
				<path style="fill:none;stroke:#263238;stroke-linecap:round;stroke-linejoin:round;stroke-miterlimit:10;" d="M91.539,434.525
					c0,2.589-3.764,4.681-8.405,4.681c-4.634,0-8.398-2.093-8.398-4.681"/>
			</g>
			<path style="fill:#263238;stroke:#263238;stroke-linecap:round;stroke-linejoin:round;stroke-miterlimit:10;" d="M87.151,422.685
				c-0.097,0.026-0.07,4.82-0.038,8.299c0.018,1.951-1.56,3.541-3.511,3.541l0,0c-1.939,0-3.511-1.572-3.511-3.511v-7.761
				L87.151,422.685z"/>
			<g>
				<path style="fill:#7A7A7A;" d="M83.134,423.254c-4.634,0-8.398-2.093-8.398-4.681v-10.456c0,2.589,3.764,4.681,8.398,4.681
					c4.64,0,8.405-2.093,8.405-4.681v10.456C91.539,421.161,87.775,423.254,83.134,423.254z"/>
				<path style="fill:none;stroke:#263238;stroke-linecap:round;stroke-linejoin:round;stroke-miterlimit:10;" d="M91.539,408.116
					c0,2.589-3.764,4.681-8.405,4.681c-4.634,0-8.398-2.093-8.398-4.681"/>
			</g>
		</g>
	</g>
	<g>
		<path style="fill:#7A7A7A;" d="M130.974,426.52c0-4.634,2.093-8.398,4.681-8.398c2.582,0,4.681,3.764,4.681,8.398
			c0,4.64-2.099,8.404-4.681,8.404C133.066,434.925,130.974,431.161,130.974,426.52z"/>
		<g>
			<g>
				<path style="fill:#7A7A7A;" d="M94.108,426.52c0-4.634,2.093-8.398,4.681-8.398h10.456c-2.589,0-4.681,3.764-4.681,8.398
					c0,4.64,2.093,8.404,4.681,8.404H98.79C96.201,434.925,94.108,431.161,94.108,426.52z"/>
				<path style="fill:#7A7A7A;" d="M104.565,426.52c0-4.634,2.093-8.398,4.681-8.398c2.582,0,4.681,3.764,4.681,8.398
					c0,4.64-2.099,8.404-4.681,8.404C106.657,434.925,104.565,431.161,104.565,426.52z"/>
				<path style="fill:none;stroke:#263238;stroke-linecap:round;stroke-linejoin:round;stroke-miterlimit:10;" d="M109.246,434.925
					c-2.589,0-4.681-3.764-4.681-8.404c0-4.634,2.093-8.398,4.681-8.398"/>
			</g>
			<path style="fill:#263238;stroke:#263238;stroke-linecap:round;stroke-linejoin:round;stroke-miterlimit:10;" d="
				M121.086,430.536c-0.026-0.097-4.82-0.07-8.299-0.038c-1.951,0.018-3.541-1.56-3.541-3.511l0,0c0-1.939,1.572-3.511,3.511-3.511
				h7.761L121.086,430.536z"/>
			<g>
				<path style="fill:#7A7A7A;" d="M120.518,426.52c0-4.634,2.093-8.398,4.681-8.398h10.456c-2.589,0-4.681,3.764-4.681,8.398
					c0,4.64,2.093,8.404,4.681,8.404h-10.456C122.61,434.925,120.518,431.161,120.518,426.52z"/>
				<path style="fill:none;stroke:#263238;stroke-linecap:round;stroke-linejoin:round;stroke-miterlimit:10;" d="M135.655,434.925
					c-2.589,0-4.681-3.764-4.681-8.404c0-4.634,2.093-8.398,4.681-8.398"/>
			</g>
		</g>
	</g>
</g>
<g id="Drinks">
	<g>
		<path style="fill:#FFFFFF;stroke:#263238;stroke-linecap:round;stroke-linejoin:round;stroke-miterlimit:10;" d="M368.173,433.474
			v-6.507c0-3.057,2.478-5.535,5.535-5.535h28.372c4.828,0,8.741,3.914,8.741,8.741v0.094c0,4.827-3.913,8.741-8.741,8.741h-28.372
			C370.651,439.009,368.173,436.531,368.173,433.474z"/>
		
			<rect x="384.653" y="423.591" transform="matrix(-1.836970e-16 1 -1 -1.836970e-16 823.6616 36.78)" style="fill:#263238;stroke:#263238;stroke-linecap:round;stroke-linejoin:round;stroke-miterlimit:10;" width="17.576" height="13.259"/>
		
			<rect x="409.892" y="428.47" transform="matrix(-1.836970e-16 1 -1 -1.836970e-16 843.1675 17.2908)" style="fill:#92E3A9;stroke:#263238;stroke-linecap:round;stroke-linejoin:round;stroke-miterlimit:10;" width="6.092" height="3.518"/>
	</g>
	<g>
		<path style="fill:#FFFFFF;stroke:#263238;stroke-linecap:round;stroke-linejoin:round;stroke-miterlimit:10;" d="M388.369,443.784
			h-6.507c-3.057,0-5.535-2.478-5.535-5.535v-28.372c0-4.827,3.914-8.741,8.741-8.741h0.094c4.828,0,8.741,3.914,8.741,8.741v28.372
			C393.904,441.306,391.426,443.784,388.369,443.784z"/>
		
			<rect x="376.328" y="411.887" style="fill:#263238;stroke:#263238;stroke-linecap:round;stroke-linejoin:round;stroke-miterlimit:10;" width="17.576" height="13.259"/>
		
			<rect x="382.078" y="397.26" style="fill:#92E3A9;stroke:#263238;stroke-linecap:round;stroke-linejoin:round;stroke-miterlimit:10;" width="6.092" height="3.518"/>
	</g>
</g>
<g id="Ball_1_">
	<g>
		<g>
			<g>
				<defs>
					<path id="XMLID_1_" d="M287.3,383.57c0,13.93-4.35,26.84-11.78,37.45v0.01c-11.83,16.91-31.45,27.96-53.65,27.96
						c-35.75,0-64.81-28.68-65.41-64.29c-0.01-0.38-0.01-0.75-0.01-1.13c0-9.53,2.04-18.58,5.7-26.75
						c5.28-11.78,13.94-21.71,24.75-28.56c2.45-1.55,5.02-2.95,7.68-4.17c8.21-3.78,17.32-5.9,26.93-5.95h0.36
						c1.05,0,2.08,0.02,3.12,0.08c1.78,0.08,3.54,0.23,5.27,0.46c14.53,1.85,27.56,8.47,37.49,18.23c1.24,1.22,2.42,2.49,3.56,3.8
						h0.01c4.53,5.23,8.25,11.19,10.96,17.68c0.73,1.75,1.39,3.55,1.97,5.38c1.4,4.4,2.34,9.01,2.77,13.77
						C287.21,379.52,287.3,381.54,287.3,383.57z"/>
				</defs>
				<use xlink:href="#XMLID_1_"  style="overflow:visible;fill:#92E3A9;"/>
				<clipPath id="XMLID_00000075131886177805707220000006916152311941610145_">
					<use xlink:href="#XMLID_1_"  style="overflow:visible;"/>
				</clipPath>
				<path style="opacity:0.2;clip-path:url(#XMLID_00000075131886177805707220000006916152311941610145_);" d="M224.99,318.22
					c0,0-6.461,15.546,9.755,40.44s25.049,43.429,25.801,53.409c0.752,9.98,0.091,21.588-5.816,28.081
					c0,0,43.92-23.452,29.521-76.38C269.852,310.842,224.99,318.22,224.99,318.22z"/>
				
					<use xlink:href="#XMLID_1_"  style="overflow:visible;fill:none;stroke:#263238;stroke-linecap:round;stroke-linejoin:round;stroke-miterlimit:10;"/>
			</g>
			<g>
				<path style="fill:none;stroke:#263238;stroke-linecap:round;stroke-linejoin:round;stroke-miterlimit:10;" d="M221.73,319.73
					h-0.01c-0.95,2.12-6.12,4.64-12.65,5.97c-6.09,1.25-11.5,1.09-13.58-0.23c-0.49-0.3-0.79-0.67-0.88-1.1
					c-0.02-0.09-0.03-0.18-0.03-0.28c8.21-3.78,17.32-5.9,26.93-5.95h0.01c0.17,0.2,0.28,0.42,0.33,0.65
					C221.91,319.09,221.86,319.4,221.73,319.73z"/>
				<path style="fill:none;stroke:#263238;stroke-linecap:round;stroke-linejoin:round;stroke-miterlimit:10;" d="M156.46,384.7
					c11.88,5.23,37.06,5.45,65.17-0.3c25.46-5.22,46.78-14,57.17-22.65"/>
				<path style="fill:none;stroke:#263238;stroke-linecap:round;stroke-linejoin:round;stroke-miterlimit:10;" d="M238.08,343.76
					h-0.01c-5.22,1.5-10.72,2.85-16.44,4.02c-22.36,4.57-42.87,5.37-56.3,2.87"/>
				<path style="fill:none;stroke:#263238;stroke-linecap:round;stroke-linejoin:round;stroke-miterlimit:10;" d="M164.72,415.4
					c11.88,5.23,37.06,5.45,65.17-0.3c20.73-4.25,38.71-10.86,50.28-17.84"/>
			</g>
			<path style="fill:none;stroke:#263238;stroke-linecap:round;stroke-linejoin:round;stroke-miterlimit:10;" d="M190.123,440.779
				c0,0,43.273,12.061,83.058-16.61"/>
		</g>
		<g>
			<path style="fill:none;stroke:#263238;stroke-linecap:round;stroke-linejoin:round;stroke-miterlimit:10;" d="M145.01,379.03
				c0,0-7.129,13.782,0,23.287"/>
			<path style="fill:none;stroke:#263238;stroke-linecap:round;stroke-linejoin:round;stroke-miterlimit:10;" d="M151.188,383.944
				c0,0-4.277,6.334,0,13.459"/>
		</g>
		<g>
			<path style="fill:none;stroke:#263238;stroke-linecap:round;stroke-linejoin:round;stroke-miterlimit:10;" d="M312.116,400.784
				c0,0,4.211,14.934-4.684,22.811"/>
			<path style="fill:none;stroke:#263238;stroke-linecap:round;stroke-linejoin:round;stroke-miterlimit:10;" d="M305.076,404.355
				c0,0,2.916,7.065-2.707,13.184"/>
		</g>
	</g>
</g>
<g id="Character">
	<g>
		<g>
			<defs>
				<path id="XMLID_3_" d="M277.22,265.34c-1.75,4.78-3.24,30.02-3.24,30.02c-14.79,10.73-43.08,5.37-43.08,5.37l0.91-5.93
					c1.96-12.73,1.54-25.73-1.33-38.29c-0.54-2.37-1.08-4.83-1.58-7.26c-3.64,2.77-8.82,6-10.52,7.29c-2.52,1.93-4.64,4.31-7,6.42
					c-6.11,5.48-11.71,12.49-19.33,15.54c-5.06,2.01-10.12,4.03-15.18,6.05c-1.98,0.79-3.96,1.58-5.92,2.42
					c-5.7,2.43-11.9,4.26-17.42,7.06c-2.9-0.63-3.82-4.42-3.88-7.39c20.82-12.64,41.86-25.44,59.24-42.51
					c6.18-6.07,11.9-12.67,18.89-17.77c0.05-0.03,0.09-0.06,0.14-0.08c3.78-5.47,11.13-8.55,12.31-9.04
					c13.49-5.66,25.92-3.98,25.92-3.98s0,0.01,0.01,0.01c3.29,3.31,8.49,15.09,11.99,24.2c2.05,5.33,3.51,9.76,3.67,11.04
					C282.25,251.99,278.96,260.55,277.22,265.34z"/>
			</defs>
			<use xlink:href="#XMLID_3_"  style="overflow:visible;fill:#92E3A9;"/>
			<clipPath id="XMLID_00000149382922385531997510000004052426971290292105_">
				<use xlink:href="#XMLID_3_"  style="overflow:visible;"/>
			</clipPath>
			<path style="clip-path:url(#XMLID_00000149382922385531997510000004052426971290292105_);fill:#92E3A9;" d="M277.22,265.34
				c-1.75,4.78-3.24,30.02-3.24,30.02c-14.79,10.73-43.08,5.37-43.08,5.37l0.91-5.93c1.96-12.73,1.54-25.73-1.33-38.29
				c-0.54-2.37-1.08-4.83-1.58-7.26c-3.64,2.77-8.82,6-10.52,7.29c-2.52,1.93-4.64,4.31-7,6.42c-6.11,5.48-11.71,12.49-19.33,15.54
				c-5.06,2.01-10.12,4.03-15.18,6.05c-1.98,0.79-3.96,1.58-5.92,2.42c-5.7,2.43-11.9,4.26-17.42,7.06
				c-2.9-0.63-3.82-4.42-3.88-7.39c20.82-12.64,41.86-25.44,59.24-42.51c6.18-6.07,11.9-12.67,18.89-17.77
				c0.05-0.03,0.09-0.06,0.14-0.08c3.78-5.47,11.13-8.55,12.31-9.04c13.49-5.66,25.92-3.98,25.92-3.98s0,0.01,0.01,0.01
				c3.29,3.31,8.49,15.09,11.99,24.2c2.05,5.33,3.51,9.76,3.67,11.04C282.25,251.99,278.96,260.55,277.22,265.34z"/>
			<g style="clip-path:url(#XMLID_00000149382922385531997510000004052426971290292105_);">
				<path style="opacity:0.2;" d="M240.095,268.989c3.237,0.284,6.726,1.026,9.905,0.355c10.408-2.198,14.596-9.978,15.455-9.226
					c4.624,4.048,12.223,2.625,13.33,0.916c2.064-3.187,3.373-7.387,3.124-11.176c-0.017-0.258-0.05-0.529-0.206-0.735
					c-0.565-0.744-0.565,2.432-3.178,4.808c0,0-3.678,5.113-13.014-1.125c-3.579-2.391-3.806,3.266-13.067,9.689
					C243.119,268.961,240.49,268.235,240.095,268.989z"/>
				<path style="opacity:0.2;" d="M233.397,237.47c0,0-0.139,0.28-0.417,0.787c-1.286,2.345-5.546,9.548-12.792,16.387
					c-8.811,8.317,8.712-5.394,8.712-5.394l2.098,9.663C230.998,258.913,234.486,249.999,233.397,237.47"/>
			</g>
		</g>
		<g>
			<path style="fill:#FFFFFF;stroke:#263238;stroke-linecap:round;stroke-linejoin:round;stroke-miterlimit:10;" d="
				M346.307,178.842c0,0,3.618-0.299,5.287-2.02c1.901-1.96,1.123-4.792,1.803-5.064c0.681-0.272,2.179,0.278,1.362,3.203
				c0,0,1.85-1.831,2.122-4.554c0.272-2.723,0.601-4.776,0.601-4.776s1.531-0.704,1.634,0.681c0.154,2.072,0.107,3.025,0.107,3.025
				s0.731-1.905,1.257-5.449c0.108-0.731,0.882-1.183,1.564-0.897c0.301,0.126,0.429,0.913,0.599,1.297
				c0.416-1.383,2.011-0.997,2.087,0.711c0.21,4.726-2.621,10.279-2.621,10.279s1.405-0.482,2.555-2.02c0,0,1.912-1.105,1.907,1.507
				c-0.003,1.699-1.735,2.76-3.233,4.166c-1.498,1.405-4.766,5.082-7.898,5.627c-3.132,0.545-7.761,0-7.761,0
				S343.447,182.382,346.307,178.842z"/>
			<path style="fill:#FFFFFF;stroke:#263238;stroke-linecap:round;stroke-linejoin:round;stroke-miterlimit:10;" d="
				M362.644,164.287c0.199-1.067-1.381,7.513-2.436,10.088"/>
			<path style="fill:#FFFFFF;stroke:#263238;stroke-linecap:round;stroke-linejoin:round;stroke-miterlimit:10;" d="
				M359.226,168.537c-0.757,4.721-1.513,5.692-1.513,5.692"/>
			<path style="fill:#FFFFFF;stroke:#263238;stroke-linecap:round;stroke-linejoin:round;stroke-miterlimit:10;" d="
				M353.752,175.707c1.895-0.869,3.604-1.856,6.456-1.332"/>
		</g>
		<g>
			<defs>
				<path id="XMLID_2_" d="M348.83,184.54c0,0-1.16,1.89-4.78,3.92c-3.63,2.03-16.54,14.07-17.99,15.37
					c-1.45,1.31-11.17,6.24-13.49,6.82c-2.32,0.58-30.75,13.64-32.2,15.23c-1,1.11-1.82,7.66-2.22,11.59
					c-3.5-9.11-8.7-20.89-11.99-24.2c-0.01,0-0.01-0.01-0.01-0.01s5.95-3.19,11.9-4.93c5.94-1.74,12.05-1.37,15.08-2.47
					c10.01-3.62,19.15-12.91,22.05-14.07c2.9-1.16,25.53-11.6,30.46-13.05C350.58,177.29,348.83,184.54,348.83,184.54z"/>
			</defs>
			<use xlink:href="#XMLID_2_"  style="overflow:visible;fill:#92E3A9;"/>
			<clipPath id="XMLID_00000000192490535083798070000012467608580315233468_">
				<use xlink:href="#XMLID_2_"  style="overflow:visible;"/>
			</clipPath>
			<path style="opacity:0.2;clip-path:url(#XMLID_00000000192490535083798070000012467608580315233468_);" d="M271.099,221.02
				l7.051,16.45c0,0,0.508-10.499,2.22-11.59s28.93-13.934,28.93-13.934S280.901,223.693,271.099,221.02z"/>
		</g>
		<g>
			<path style="fill:#FFFFFF;stroke:#263238;stroke-linecap:round;stroke-linejoin:round;stroke-miterlimit:10;" d="M153.53,294.03
				c0,0-3.56,2.62-5.3,3.78c-0.756,0.504-1.293,1.61-1.658,2.699c-0.767,2.286-2.777,3.955-5.157,4.335
				c-2.911,0.464-6.178,0.396-7.984,0.216c-2.9-0.29-2.61-1.92-2.61-1.92s-10.73-1.56-13.64-2.14c-2.9-0.58-4.64-1.74-4.64-2.9
				s19.73-2.32,25.82-4.07c2.683-0.765,4.242-1.753,5.146-2.619c2.453-2.349,5.241-4.315,8.184-6.011l0,0
				c0.067-0.004,0.157-0.01,0.224-0.015C157.058,287.467,153.53,294.03,153.53,294.03z"/>
			<path style="fill:none;stroke:#263238;stroke-linecap:round;stroke-linejoin:round;stroke-miterlimit:10;" d="M348.83,184.54
				c0,0-1.16,1.89-4.78,3.92c-3.63,2.03-16.54,14.07-17.99,15.37c-1.45,1.31-11.17,6.24-13.49,6.82
				c-2.32,0.58-30.75,13.64-32.2,15.23c-1,1.11-1.82,7.66-2.22,11.59c2.05,5.33,3.51,9.76,3.67,11.04
				c0.43,3.48-2.86,12.04-4.6,16.83c-1.75,4.78-3.24,30.02-3.24,30.02c-14.79,10.73-43.08,5.37-43.08,5.37l0.91-5.93
				c1.96-12.73,1.54-25.73-1.33-38.29c-0.54-2.37-1.08-4.83-1.58-7.26c-3.64,2.77-8.82,6-10.52,7.29c-2.52,1.93-4.64,4.31-7,6.42
				c-6.11,5.48-11.71,12.49-19.33,15.54c-5.06,2.01-10.12,4.03-15.18,6.05c-1.98,0.79-3.96,1.58-5.92,2.42
				c-5.7,2.43-11.9,4.26-17.42,7.06c0,0,3.58-6.66-1.73-8.69c20.11-12.22,40.31-24.73,57.09-41.21c6.18-6.07,11.9-12.67,18.89-17.77
				c0.05-0.03,0.09-0.06,0.14-0.08c3.78-5.47,11.13-8.55,12.31-9.04c13.49-5.66,25.92-3.98,25.92-3.98s5.95-3.19,11.9-4.93
				c5.94-1.74,12.05-1.37,15.08-2.47c10.01-3.62,19.15-12.91,22.05-14.07c2.9-1.16,25.53-11.6,30.46-13.05
				C350.58,177.29,348.83,184.54,348.83,184.54z"/>
			<path style="fill:#92E3A9;stroke:#263238;stroke-linecap:round;stroke-linejoin:round;stroke-miterlimit:10;" d="M153.53,294.03
				c-2.9-0.63-3.82-4.42-3.88-7.39c0.68-0.41,1.36-0.82,2.04-1.24c0.03-0.02,0.07-0.04,0.11-0.06
				C157.11,287.37,153.53,294.03,153.53,294.03z"/>
		</g>
		<g>
			<g>
				<g>
					<path style="fill:#FFFFFF;stroke:#263238;stroke-linecap:round;stroke-linejoin:round;stroke-miterlimit:10;" d="
						M274.479,428.943c0,0-5.196,14.526-2.845,16.267c2.351,1.741,27.453,10.009,36.008,6.963
						c8.554-3.046-7.982-12.62-12.334-14.796c-4.352-2.176-6.333-2.096-5.821-7.318C290,424.837,286.262,437.119,274.479,428.943z"
						/>
					<path style="fill:#FFFFFF;stroke:#263238;stroke-linecap:round;stroke-linejoin:round;stroke-miterlimit:10;" d="M287.3,447.12
						c7.949,2.098,17.527,3.9,21.75,1.87"/>
					<path style="fill:#FFFFFF;stroke:#263238;stroke-linecap:round;stroke-linejoin:round;stroke-miterlimit:10;" d="
						M274.847,443.297c0,0,3.154,1.133,7.604,2.458"/>
				</g>
				<g>
					<path style="fill:#FFFFFF;stroke:#263238;stroke-linecap:round;stroke-linejoin:round;stroke-miterlimit:10;" d="
						M320.23,431.966c2.019,1.561,4.816,1.523,7.205,2.418c1.613,0.604,3.026,1.629,4.499,2.521
						c3.464,2.097,7.351,3.492,11.358,4.076c1.961,0.285,4.001,0.372,5.888-0.231c1.887-0.603,3.608-2,4.175-3.899
						c0.275-0.921,0.232-2.019-0.425-2.722c-0.385-0.412-0.925-0.635-1.445-0.852c-5.748-2.396-11.201-5.498-16.197-9.215
						c-2.657-1.977-5.306-4.186-8.53-4.945C319.451,417.4,314.011,427.159,320.23,431.966z"/>
					<path style="fill:#FFFFFF;stroke:#263238;stroke-linecap:round;stroke-linejoin:round;stroke-miterlimit:10;" d="
						M323.504,431.625c0.791,0.204,1.544,0.555,2.208,1.032c1.246,0.893,6.222,4.249,6.222,4.249"/>
					<path style="fill:#FFFFFF;stroke:#263238;stroke-linecap:round;stroke-linejoin:round;stroke-miterlimit:10;" d="
						M342.519,438.258c3.795,0.854,8.494,1.124,10.785-1.824"/>
					<path style="fill:#FFFFFF;stroke:#263238;stroke-linecap:round;stroke-linejoin:round;stroke-miterlimit:10;" d="
						M336.828,436.433c0,0,1.365,0.6,3.339,1.201"/>
				</g>
			</g>
			<g>
				<path style="fill:#263238;stroke:#263238;stroke-linecap:round;stroke-linejoin:round;stroke-miterlimit:10;" d="
					M230.902,300.732l33.073,24.37c0,0,4.873,3.264,7.658,0l2.351-29.743C273.985,295.359,262.017,306.39,230.902,300.732"/>
				<path style="fill:#263238;stroke:#263238;stroke-linecap:round;stroke-linejoin:round;stroke-miterlimit:10;" d="
					M335.723,390.377c-2.552,21.756-3.428,31.773-3.428,31.773s-4.701,8.633-13.901,1.002c0,0,1.499-15.732-0.878-29.564
					c-2.322-13.555,1.293-31.385,1.524-31.837c-16.015-5.059-47.405-44.363-47.405-44.363l2.35-22.023
					c0,0,42.303,35.403,53.962,44.102C341.631,349.676,338.266,368.621,335.723,390.377z"/>
				<path style="fill:#263238;stroke:#263238;stroke-linecap:round;stroke-linejoin:round;stroke-miterlimit:10;" d="M318.39,360.34
					c0.06,2.96-0.5,5.79-1.76,7.85c0,0-0.01,0.01-0.02,0.03c-0.7,1.42-21.29,48.03-26.07,61.84c-0.31,0.9-0.68,1.68-1.09,2.34
					c-2.91,4.74-7.98,3.75-10.72,2.87c-2.41-0.78-4.21-3.72-4.25-6.33c-0.01-0.26,0.01-0.52,0.04-0.77c0.25-1.92,0.58-4.36,1-7.14
					v-0.01c1.3-8.56,3.4-20.31,6.33-29.77c1.73-5.6,3.53-10.14,5.17-13.71c3.32-7.27,5.96-10.54,5.96-10.54
					c-1.9-0.7-4.73-1.74-8.73-3.23c-1.62-0.6-3.43-1.27-5.45-2.02l-32.57-13.02c-5.55-2.9-9.64-5.79-12.67-8.73
					c-5.11-4.93-7.24-9.97-8.31-15.33c-0.35-1.76-0.44-3.57-0.34-5.38c0.01-0.36,0.04-0.71,0.08-1.07c0.82-9,5.92-17.48,5.92-17.48
					h0.01c0.02,0,0.04,0.01,0.06,0.01c14.58,3.27,28.51,9.62,40.65,16.63v0.01c0.19,0.1,0.39,0.21,0.58,0.33
					c21.61,12.55,37.44,27.06,40.94,29.58C316.38,349.62,318.31,355.15,318.39,360.34z"/>
			</g>
		</g>
		<g>
			<path style="fill:#FFFFFF;stroke:#263238;stroke-linecap:round;stroke-linejoin:round;stroke-miterlimit:10;" d="
				M241.859,204.463c1.161,6.673-0.29,11.268-3.191,13.322c-2.901,2.054,25.24,17.72,23.79-4.038c0,0-3.191-1.003-4.062-2.823
				C257.525,209.105,241.859,204.463,241.859,204.463z"/>
			<g>
				<g>
					<g>
						<g>
							<path style="fill:#263238;stroke:#263238;stroke-linecap:round;stroke-linejoin:round;stroke-miterlimit:10;" d="
								M234.961,165.34c-3.51-1.128-8.249,0.877-10.605,3.712c-2.356,2.836-3.307,6.454-2.581,10.068
								c0.521,2.598,2.37,6.542,4.976,7.017c2.085,0.38,4.121-0.73,5.95-1.8c1.684-0.985,3.399-1.996,4.679-3.467
								c1.122-1.29,1.854-2.878,2.378-4.506c0.674-2.094,1.017-4.396,0.308-6.478C240.066,169.887,239.647,166.847,234.961,165.34z"
								/>
						</g>
						<path style="fill:#263238;stroke:#263238;stroke-linecap:round;stroke-linejoin:round;stroke-miterlimit:10;" d="
							M233.206,169.887c-1.956,0.946-3.506,2.583-4.713,4.39c-2.727,4.084-3.816,9.534-1.742,13.986
							c0.944,2.025,2.461,3.718,3.957,5.378c2.4,2.665,4.8,5.33,7.2,7.995c-0.429-2.105,0.499-4.253,1.676-6.051
							c1.385-2.115,3.131-3.965,4.868-5.803c1.721-1.822,3.469-3.666,5.609-4.972c2.475-1.511,5.355-2.226,8.224-2.648
							c1.662-0.245,3.387-0.395,5.001,0.074c-0.956-6.578-11.396-21.061-20.584-16.05c-2.124,1.158-2.512,2.675-2.512,2.675
							s-2.348-0.047-3.45,0.068C235.52,169.059,234.314,169.352,233.206,169.887z"/>
						<path style="fill:#FFFFFF;stroke:#263238;stroke-linecap:round;stroke-linejoin:round;stroke-miterlimit:10;" d="
							M236.243,196.621c-0.636-0.813-1.297-1.648-2.198-2.151c-0.901-0.503-2.115-0.596-2.915,0.056
							c-0.607,0.494-0.86,1.306-0.942,2.084c-0.232,2.208,0.71,4.451,2.265,6.036c1.555,1.585,3.668,2.548,5.847,2.972
							c0.518,0.101,1.192,0.097,1.41-0.383c0.147-0.322-0.003-0.695-0.151-1.016c-1.124-2.436-1.379-2.99-2.503-5.425
							L236.243,196.621z"/>
						<path style="fill:#FFFFFF;stroke:#263238;stroke-linecap:round;stroke-linejoin:round;stroke-miterlimit:10;" d="
							M253.896,171.945c-1.036-0.285-1.91-0.364-2.755-0.296c-2.087,0.169-3.718,1.885-3.923,3.968l0,0l0,0
							c-2.208-0.513-4.539,0.111-6.165,1.691c-0.352,0.342-0.654,0.668-0.845,0.94c-5.275,7.487-3.561,13.753-3.074,17.002
							c0.329,2.194,0.674,4.403,1.437,6.486c0.763,2.083,1.982,4.055,3.77,5.368c0.661,0.485,1.387,0.873,2.111,1.258
							c0.825,0.439,1.649,0.879,2.483,1.302c2.463,1.249,5.011,2.355,7.674,3.085c2.157,0.592,4.622,0.889,6.496-0.331
							c1.96-1.277,2.69-3.835,3.415-5.946c0.992-2.888,1.786-5.842,2.325-8.848c0.39-2.174,0.65-4.424,0.225-6.596
							c-0.488-2.493-1.839-4.714-2.956-6.995c-1.168-2.385-1.646-5.342-3.38-7.351C258.84,174.488,256.749,172.73,253.896,171.945z"
							/>
						<path style="fill:none;stroke:#263238;stroke-linecap:round;stroke-linejoin:round;" d="M254.729,169.886
							c1.076-0.503,2.422-0.984,3.368-0.267c0.816,0.619,0.874,1.803,0.859,2.827c-0.014,0.965-0.029,1.929-0.043,2.894
							c-0.004,0.266-0.006,0.54,0.095,0.786c0.284,0.689,1.181,0.823,1.924,0.888c1.5,0.131,3.256,0.611,3.742,2.036
							c0.368,1.079-0.169,2.252-0.107,3.39c0.012,0.217,0.057,0.454,0.225,0.592c0.174,0.143,0.424,0.135,0.649,0.112
							c0.602-0.062,1.199-0.178,1.78-0.348c0,0,6.418-0.721,3.617,6.306"/>
					</g>
					<path style="fill:none;stroke:#263238;stroke-linecap:round;stroke-linejoin:round;" d="M242.509,176.328
						c-1.133,0.906-2.236,1.906-2.918,3.186c-0.683,1.28-0.882,2.896-0.191,4.172c0.47,0.867,1.306,1.514,1.662,2.433
						c0.632,1.627-0.428,3.357-1.107,4.965c-0.77,1.821-1.058,3.943-0.291,5.765c0.278,0.661,0.74,1.304,1.424,1.519
						c0.828,0.26,1.788-0.165,2.572,0.209c0.907,0.433,1.057,1.674,0.853,2.658c-0.204,0.984-0.746,2.002-0.43,2.955
						c1.266,3.82,6.174,1.394,6.174,1.394"/>
				</g>
				<g>
					<path style="fill:#263238;" d="M242.341,207.103c0,0,8.663,10.77,15.213,8.137c5.691-2.288,6.966-8.769,6.966-8.769
						s-1.925,5.3-3.415,5.946C259.615,213.064,255.465,214.216,242.341,207.103"/>
					<g>
						<path style="fill:none;stroke:#263238;stroke-linecap:round;stroke-linejoin:round;" d="M257.059,187.595
							c0,0,0.236,5.109,2.374,5.586c2.138,0.477,4.945,1.564,2.884,4.096"/>
						<path style="fill:#263238;" d="M251.808,193.086c0.444,1.149,0.377,2.242-0.142,2.442c-0.52,0.201-1.303-0.564-1.747-1.713
							c-0.444-1.149-0.374-2.234,0.145-2.435C250.584,191.18,251.368,191.945,251.808,193.086z"/>
						<path style="fill:#263238;" d="M261.49,187.828c0.444,1.149,0.377,2.242-0.142,2.443c-0.52,0.201-1.303-0.564-1.747-1.713
							c-0.444-1.149-0.382-2.231,0.145-2.435C260.274,185.919,261.05,186.687,261.49,187.828z"/>
						<path style="fill:none;stroke:#263238;stroke-linecap:round;stroke-linejoin:round;" d="M245.349,190.89
							c0,0,1.501-4.338,5.18-4.975"/>
						<path style="fill:none;stroke:#263238;stroke-linecap:round;stroke-linejoin:round;" d="M256.816,183.452
							c0,0,2.612-2.789,5.688-0.638"/>
						<circle style="fill:#263238;" cx="260.264" cy="203.157" r="1.521"/>
					</g>
				</g>
			</g>
		</g>
		<g>
			<g>
				<path style="fill:none;stroke:#263238;stroke-linecap:round;stroke-linejoin:round;stroke-miterlimit:10;" d="M252.443,268.692
					c12.49-5.953,12.077-14.405,12.077-16.324"/>
				<path style="fill:none;stroke:#263238;stroke-linecap:round;stroke-linejoin:round;stroke-miterlimit:10;" d="M231.657,262.494
					c2.026,6.897,3.829,14.168,6.175,20.963"/>
				<path style="fill:none;stroke:#263238;stroke-linecap:round;stroke-linejoin:round;stroke-miterlimit:10;" d="M230.393,227.326
					c3.037,4.347,3.84,10.172,2.092,15.178"/>
				
					<line style="fill:none;stroke:#263238;stroke-linecap:round;stroke-linejoin:round;stroke-miterlimit:10;" x1="273.635" y1="227.326" x2="279.218" y2="240.309"/>
				
					<line style="fill:none;stroke:#263238;stroke-linecap:round;stroke-linejoin:round;stroke-miterlimit:10;" x1="270.477" y1="219.98" x2="272.691" y2="225.16"/>
				<path style="fill:none;stroke:#263238;stroke-linecap:round;stroke-linejoin:round;stroke-miterlimit:10;" d="M313.922,200.123
					c1.148,1.214,1.737,2.936,1.574,4.598"/>
				<path style="fill:none;stroke:#263238;stroke-linecap:round;stroke-linejoin:round;stroke-miterlimit:10;" d="M196.762,261.577
					c0.4,1.309,1.103,2.524,2.038,3.523"/>
			</g>
			<g>
				<path style="fill:none;stroke:#7A7A7A;stroke-linecap:round;stroke-linejoin:round;stroke-miterlimit:10;" d="M309.05,343.987
					c-6.737-5.572-20.042-16.512-36.84-26.267l-1.733-0.998l2.789-14.621"/>
				<path style="fill:none;stroke:#7A7A7A;stroke-linecap:round;stroke-linejoin:round;stroke-miterlimit:10;" d="M313.15,347.3
					c-0.547-0.394-1.395-1.08-2.519-2.006"/>
				<path style="fill:none;stroke:#7A7A7A;stroke-linecap:round;stroke-linejoin:round;stroke-miterlimit:10;" d="M316.63,368.19
					c1.26-2.06,1.82-4.89,1.76-7.85c-0.053-3.405-0.901-6.956-2.391-9.651"/>
				<path style="fill:none;stroke:#7A7A7A;stroke-linecap:round;stroke-linejoin:round;" d="M249.359,308.333
					c5.129,1.441,10.933,3.796,16.791,7.617"/>
				<path style="fill:none;stroke:#7A7A7A;stroke-linecap:round;stroke-linejoin:round;" d="M231.657,306.208
					c0,0,5.207-0.509,12.821,0.968"/>
			</g>
		</g>
		<g>
			<g>
				<path style="fill:#FFFFFF;stroke:#263238;stroke-linecap:round;stroke-linejoin:round;stroke-miterlimit:10;" d="
					M151.796,285.335L151.796,285.335c-3.027,1.744-10.869,7.963-13.433,8.698c-6.092,1.746-25.82,2.907-25.82,4.067
					c0,1.161,1.741,2.321,4.642,2.901c2.901,0.58,13.635,2.134,13.635,2.134s-0.29,1.637,2.611,1.928
					c1.934,0.194,5.545,0.258,8.597-0.323c2.135-0.406,3.825-2.018,4.492-4.087c0.366-1.135,0.917-2.317,1.706-2.844
					c1.741-1.16,5.305-3.777,5.305-3.777S157.106,287.366,151.796,285.335z"/>
			</g>
			<path style="fill:#FFFFFF;stroke:#263238;stroke-linecap:round;stroke-linejoin:round;stroke-miterlimit:10;" d="
				M132.054,302.101c0.15-0.534,0.663-0.9,1.197-1.05c0.535-0.15,1.1-0.126,1.654-0.14c1.536-0.037,3.064-0.372,4.475-0.98"/>
			<path style="fill:none;stroke:#263238;stroke-linecap:round;stroke-linejoin:round;stroke-miterlimit:10;" d="M122.376,301.016
				c-3.475,1.475-5.219-1.201-5.299-1.592c-0.108-0.526,0.374-1.189,0.908-1.132c6.441,0.692,10.742-0.12,15.348-0.352"/>
			
				<line style="fill:#FFFFFF;stroke:#263238;stroke-linecap:round;stroke-linejoin:round;stroke-miterlimit:10;" x1="119.497" y1="296.716" x2="130.842" y2="295.871"/>
		</g>
	</g>
</g>
</svg>
